<svg xmlns="http://www.w3.org/2000/svg" xmlns:xlink="http://www.w3.org/1999/xlink" width="500" zoomAndPan="magnify" viewBox="0 0 375 374.999991" height="500" preserveAspectRatio="xMidYMid meet" version="1.0"><defs><clipPath id="ccf4771568"><path d="M 0 27 L 375 27 L 375 348.75 L 0 348.75 Z M 0 27 " clip-rule="nonzero"/></clipPath></defs><g clip-path="url(#ccf4771568)"><path fill="#5c8f8e" d="M 187.5 27.011719 C 83.949219 27.011719 0 98.96875 0 187.71875 C 0 198.824219 1.3125 209.667969 3.824219 220.136719 C 22.355469 252.019531 35.175781 231.894531 93.75 202.605469 C 153.40625 172.769531 93.75 244.269531 72.917969 285.9375 C 66.511719 298.75 69.980469 309.59375 78.75 318.480469 C 109.4375 337.269531 146.917969 348.4375 187.5 348.4375 C 291.050781 348.4375 375 276.488281 375 187.71875 C 375 98.96875 291.050781 27.011719 187.5 27.011719 Z M 217.175781 281.667969 C 213.0625 295.6875 191.550781 301.707031 169.125 295.113281 C 146.699219 288.53125 131.855469 271.84375 135.96875 257.8125 C 140.082031 243.792969 161.59375 237.769531 184.019531 244.375 C 206.449219 250.949219 221.292969 267.636719 217.175781 281.667969 Z M 217.175781 281.667969 " fill-opacity="1" fill-rule="nonzero"/></g><path fill="#d59987" d="M 135.417969 108.855469 C 135.417969 109.878906 135.367188 110.898438 135.265625 111.917969 C 135.164062 112.9375 135.015625 113.945312 134.816406 114.949219 C 134.617188 115.953125 134.367188 116.945312 134.070312 117.925781 C 133.773438 118.90625 133.429688 119.867188 133.039062 120.8125 C 132.644531 121.757812 132.210938 122.683594 131.726562 123.585938 C 131.246094 124.488281 130.71875 125.363281 130.148438 126.214844 C 129.582031 127.066406 128.972656 127.886719 128.324219 128.679688 C 127.675781 129.46875 126.988281 130.226562 126.265625 130.953125 C 125.539062 131.675781 124.78125 132.363281 123.992188 133.011719 C 123.199219 133.660156 122.378906 134.269531 121.527344 134.835938 C 120.675781 135.40625 119.800781 135.933594 118.898438 136.414062 C 117.996094 136.898438 117.070312 137.332031 116.125 137.726562 C 115.179688 138.117188 114.21875 138.460938 113.238281 138.757812 C 112.257812 139.054688 111.265625 139.304688 110.261719 139.503906 C 109.257812 139.703125 108.25 139.851562 107.230469 139.953125 C 106.210938 140.054688 105.191406 140.105469 104.167969 140.105469 C 103.144531 140.105469 102.121094 140.054688 101.105469 139.953125 C 100.085938 139.851562 99.074219 139.703125 98.070312 139.503906 C 97.066406 139.304688 96.074219 139.054688 95.09375 138.757812 C 94.117188 138.460938 93.152344 138.117188 92.207031 137.726562 C 91.261719 137.332031 90.339844 136.898438 89.433594 136.414062 C 88.53125 135.933594 87.65625 135.40625 86.804688 134.835938 C 85.953125 134.269531 85.132812 133.660156 84.34375 133.011719 C 83.550781 132.363281 82.792969 131.675781 82.070312 130.953125 C 81.347656 130.226562 80.660156 129.46875 80.011719 128.679688 C 79.359375 127.886719 78.75 127.066406 78.183594 126.214844 C 77.613281 125.363281 77.089844 124.488281 76.605469 123.585938 C 76.125 122.683594 75.6875 121.757812 75.296875 120.8125 C 74.902344 119.867188 74.558594 118.90625 74.261719 117.925781 C 73.964844 116.945312 73.714844 115.953125 73.515625 114.949219 C 73.316406 113.945312 73.167969 112.9375 73.066406 111.917969 C 72.96875 110.898438 72.917969 109.878906 72.917969 108.855469 C 72.917969 107.832031 72.96875 106.808594 73.066406 105.792969 C 73.167969 104.773438 73.316406 103.761719 73.515625 102.757812 C 73.714844 101.753906 73.964844 100.761719 74.261719 99.78125 C 74.558594 98.804688 74.902344 97.839844 75.296875 96.894531 C 75.6875 95.949219 76.125 95.027344 76.605469 94.121094 C 77.089844 93.21875 77.613281 92.34375 78.183594 91.492188 C 78.75 90.640625 79.359375 89.820312 80.011719 89.03125 C 80.660156 88.238281 81.347656 87.480469 82.070312 86.757812 C 82.792969 86.035156 83.550781 85.347656 84.34375 84.699219 C 85.132812 84.046875 85.953125 83.4375 86.804688 82.871094 C 87.65625 82.300781 88.53125 81.777344 89.433594 81.292969 C 90.339844 80.8125 91.261719 80.375 92.207031 79.984375 C 93.152344 79.589844 94.117188 79.246094 95.09375 78.949219 C 96.074219 78.652344 97.066406 78.402344 98.070312 78.203125 C 99.074219 78.003906 100.085938 77.855469 101.105469 77.753906 C 102.121094 77.65625 103.144531 77.605469 104.167969 77.605469 C 105.191406 77.605469 106.210938 77.65625 107.230469 77.753906 C 108.25 77.855469 109.257812 78.003906 110.261719 78.203125 C 111.265625 78.402344 112.257812 78.652344 113.238281 78.949219 C 114.21875 79.246094 115.179688 79.589844 116.125 79.984375 C 117.070312 80.375 117.996094 80.8125 118.898438 81.292969 C 119.800781 81.777344 120.675781 82.300781 121.527344 82.871094 C 122.378906 83.4375 123.199219 84.046875 123.992188 84.699219 C 124.78125 85.347656 125.539062 86.035156 126.265625 86.757812 C 126.988281 87.480469 127.675781 88.238281 128.324219 89.03125 C 128.972656 89.820312 129.582031 90.640625 130.148438 91.492188 C 130.71875 92.34375 131.246094 93.21875 131.726562 94.121094 C 132.210938 95.027344 132.644531 95.949219 133.039062 96.894531 C 133.429688 97.839844 133.773438 98.804688 134.070312 99.78125 C 134.367188 100.761719 134.617188 101.753906 134.816406 102.757812 C 135.015625 103.761719 135.164062 104.773438 135.265625 105.792969 C 135.367188 106.808594 135.417969 107.832031 135.417969 108.855469 Z M 135.417969 108.855469 " fill-opacity="1" fill-rule="nonzero"/><path fill="#d5c687" d="M 239.582031 88.019531 C 239.582031 89.042969 239.53125 90.066406 239.433594 91.082031 C 239.332031 92.101562 239.183594 93.113281 238.984375 94.117188 C 238.78125 95.121094 238.535156 96.113281 238.238281 97.09375 C 237.941406 98.070312 237.597656 99.035156 237.203125 99.980469 C 236.8125 100.925781 236.375 101.847656 235.894531 102.753906 C 235.410156 103.65625 234.886719 104.53125 234.316406 105.382812 C 233.75 106.234375 233.140625 107.054688 232.488281 107.84375 C 231.839844 108.636719 231.152344 109.394531 230.429688 110.117188 C 229.707031 110.839844 228.949219 111.527344 228.15625 112.175781 C 227.367188 112.828125 226.546875 113.4375 225.695312 114.003906 C 224.84375 114.574219 223.96875 115.097656 223.066406 115.582031 C 222.160156 116.0625 221.238281 116.5 220.292969 116.890625 C 219.347656 117.285156 218.382812 117.628906 217.40625 117.925781 C 216.425781 118.222656 215.433594 118.46875 214.429688 118.671875 C 213.425781 118.871094 212.414062 119.019531 211.394531 119.121094 C 210.378906 119.21875 209.355469 119.269531 208.332031 119.269531 C 207.308594 119.269531 206.289062 119.21875 205.269531 119.121094 C 204.25 119.019531 203.242188 118.871094 202.238281 118.671875 C 201.234375 118.46875 200.242188 118.222656 199.261719 117.925781 C 198.28125 117.628906 197.320312 117.285156 196.375 116.890625 C 195.429688 116.5 194.503906 116.0625 193.601562 115.582031 C 192.699219 115.097656 191.824219 114.574219 190.972656 114.003906 C 190.121094 113.4375 189.300781 112.828125 188.507812 112.175781 C 187.71875 111.527344 186.960938 110.839844 186.234375 110.117188 C 185.511719 109.394531 184.824219 108.636719 184.175781 107.84375 C 183.527344 107.054688 182.917969 106.234375 182.351562 105.382812 C 181.78125 104.53125 181.253906 103.65625 180.773438 102.753906 C 180.289062 101.847656 179.855469 100.925781 179.460938 99.980469 C 179.070312 99.035156 178.726562 98.070312 178.429688 97.09375 C 178.132812 96.113281 177.882812 95.121094 177.683594 94.117188 C 177.484375 93.113281 177.335938 92.101562 177.234375 91.082031 C 177.132812 90.066406 177.082031 89.042969 177.082031 88.019531 C 177.082031 86.996094 177.132812 85.976562 177.234375 84.957031 C 177.335938 83.9375 177.484375 82.929688 177.683594 81.925781 C 177.882812 80.921875 178.132812 79.929688 178.429688 78.949219 C 178.726562 77.96875 179.070312 77.007812 179.460938 76.0625 C 179.855469 75.117188 180.289062 74.191406 180.773438 73.289062 C 181.253906 72.386719 181.78125 71.511719 182.351562 70.660156 C 182.917969 69.808594 183.527344 68.988281 184.175781 68.195312 C 184.824219 67.40625 185.511719 66.648438 186.234375 65.921875 C 186.960938 65.199219 187.71875 64.511719 188.507812 63.863281 C 189.300781 63.214844 190.121094 62.605469 190.972656 62.039062 C 191.824219 61.46875 192.699219 60.941406 193.601562 60.460938 C 194.503906 59.976562 195.429688 59.542969 196.375 59.148438 C 197.320312 58.757812 198.28125 58.414062 199.261719 58.117188 C 200.242188 57.820312 201.234375 57.570312 202.238281 57.371094 C 203.242188 57.171875 204.25 57.023438 205.269531 56.921875 C 206.289062 56.820312 207.308594 56.769531 208.332031 56.769531 C 209.355469 56.769531 210.378906 56.820312 211.394531 56.921875 C 212.414062 57.023438 213.425781 57.171875 214.429688 57.371094 C 215.433594 57.570312 216.425781 57.820312 217.40625 58.117188 C 218.382812 58.414062 219.347656 58.757812 220.292969 59.148438 C 221.238281 59.542969 222.160156 59.976562 223.066406 60.460938 C 223.96875 60.941406 224.84375 61.46875 225.695312 62.039062 C 226.546875 62.605469 227.367188 63.214844 228.15625 63.863281 C 228.949219 64.511719 229.707031 65.199219 230.429688 65.921875 C 231.152344 66.648438 231.839844 67.40625 232.488281 68.195312 C 233.140625 68.988281 233.75 69.808594 234.316406 70.660156 C 234.886719 71.511719 235.410156 72.386719 235.894531 73.289062 C 236.375 74.191406 236.8125 75.117188 237.203125 76.0625 C 237.597656 77.007812 237.941406 77.96875 238.238281 78.949219 C 238.535156 79.929688 238.78125 80.921875 238.984375 81.925781 C 239.183594 82.929688 239.332031 83.9375 239.433594 84.957031 C 239.53125 85.976562 239.582031 86.996094 239.582031 88.019531 Z M 239.582031 88.019531 " fill-opacity="1" fill-rule="nonzero"/><path fill="#8cbd82" d="M 333.332031 150.519531 C 333.332031 151.542969 333.28125 152.566406 333.183594 153.582031 C 333.082031 154.601562 332.933594 155.613281 332.734375 156.617188 C 332.53125 157.621094 332.285156 158.613281 331.988281 159.59375 C 331.691406 160.570312 331.347656 161.535156 330.953125 162.480469 C 330.5625 163.425781 330.125 164.347656 329.644531 165.253906 C 329.160156 166.15625 328.636719 167.03125 328.066406 167.882812 C 327.5 168.734375 326.890625 169.554688 326.238281 170.34375 C 325.589844 171.136719 324.902344 171.894531 324.179688 172.617188 C 323.457031 173.339844 322.699219 174.027344 321.90625 174.675781 C 321.117188 175.328125 320.296875 175.9375 319.445312 176.503906 C 318.59375 177.074219 317.71875 177.597656 316.816406 178.082031 C 315.910156 178.5625 314.988281 179 314.042969 179.390625 C 313.097656 179.785156 312.132812 180.128906 311.15625 180.425781 C 310.175781 180.722656 309.183594 180.96875 308.179688 181.171875 C 307.175781 181.371094 306.164062 181.519531 305.144531 181.621094 C 304.128906 181.71875 303.105469 181.769531 302.082031 181.769531 C 301.058594 181.769531 300.039062 181.71875 299.019531 181.621094 C 298 181.519531 296.992188 181.371094 295.988281 181.171875 C 294.984375 180.96875 293.992188 180.722656 293.011719 180.425781 C 292.03125 180.128906 291.070312 179.785156 290.125 179.390625 C 289.179688 179 288.253906 178.5625 287.351562 178.082031 C 286.449219 177.597656 285.574219 177.074219 284.722656 176.503906 C 283.871094 175.9375 283.050781 175.328125 282.257812 174.675781 C 281.46875 174.027344 280.710938 173.339844 279.984375 172.617188 C 279.261719 171.894531 278.574219 171.136719 277.925781 170.34375 C 277.277344 169.554688 276.667969 168.734375 276.101562 167.882812 C 275.53125 167.03125 275.003906 166.15625 274.523438 165.253906 C 274.039062 164.347656 273.605469 163.425781 273.210938 162.480469 C 272.820312 161.535156 272.476562 160.570312 272.179688 159.59375 C 271.882812 158.613281 271.632812 157.621094 271.433594 156.617188 C 271.234375 155.613281 271.085938 154.601562 270.984375 153.582031 C 270.882812 152.566406 270.832031 151.542969 270.832031 150.519531 C 270.832031 149.496094 270.882812 148.476562 270.984375 147.457031 C 271.085938 146.4375 271.234375 145.429688 271.433594 144.425781 C 271.632812 143.421875 271.882812 142.429688 272.179688 141.449219 C 272.476562 140.46875 272.820312 139.507812 273.210938 138.5625 C 273.605469 137.617188 274.039062 136.691406 274.523438 135.789062 C 275.003906 134.886719 275.53125 134.011719 276.101562 133.160156 C 276.667969 132.308594 277.277344 131.488281 277.925781 130.695312 C 278.574219 129.90625 279.261719 129.148438 279.984375 128.421875 C 280.710938 127.699219 281.46875 127.011719 282.257812 126.363281 C 283.050781 125.714844 283.871094 125.105469 284.722656 124.539062 C 285.574219 123.96875 286.449219 123.441406 287.351562 122.960938 C 288.253906 122.476562 289.179688 122.042969 290.125 121.648438 C 291.070312 121.257812 292.03125 120.914062 293.011719 120.617188 C 293.992188 120.320312 294.984375 120.070312 295.988281 119.871094 C 296.992188 119.671875 298 119.523438 299.019531 119.421875 C 300.039062 119.320312 301.058594 119.269531 302.082031 119.269531 C 303.105469 119.269531 304.128906 119.320312 305.144531 119.421875 C 306.164062 119.523438 307.175781 119.671875 308.179688 119.871094 C 309.183594 120.070312 310.175781 120.320312 311.15625 120.617188 C 312.132812 120.914062 313.097656 121.257812 314.042969 121.648438 C 314.988281 122.042969 315.910156 122.476562 316.816406 122.960938 C 317.71875 123.441406 318.59375 123.96875 319.445312 124.539062 C 320.296875 125.105469 321.117188 125.714844 321.90625 126.363281 C 322.699219 127.011719 323.457031 127.699219 324.179688 128.421875 C 324.902344 129.148438 325.589844 129.90625 326.238281 130.695312 C 326.890625 131.488281 327.5 132.308594 328.066406 133.160156 C 328.636719 134.011719 329.160156 134.886719 329.644531 135.789062 C 330.125 136.691406 330.5625 137.617188 330.953125 138.5625 C 331.347656 139.507812 331.691406 140.46875 331.988281 141.449219 C 332.285156 142.429688 332.53125 143.421875 332.734375 144.425781 C 332.933594 145.429688 333.082031 146.4375 333.183594 147.457031 C 333.28125 148.476562 333.332031 149.496094 333.332031 150.519531 Z M 333.332031 150.519531 " fill-opacity="1" fill-rule="nonzero"/><path fill="#7db7cd" d="M 322.917969 244.269531 C 322.917969 245.292969 322.867188 246.316406 322.765625 247.332031 C 322.664062 248.351562 322.515625 249.363281 322.316406 250.367188 C 322.117188 251.371094 321.867188 252.363281 321.570312 253.34375 C 321.273438 254.320312 320.929688 255.285156 320.539062 256.230469 C 320.144531 257.175781 319.710938 258.097656 319.226562 259 C 318.746094 259.90625 318.21875 260.78125 317.648438 261.632812 C 317.082031 262.484375 316.472656 263.304688 315.824219 264.09375 C 315.175781 264.886719 314.488281 265.644531 313.765625 266.367188 C 313.039062 267.089844 312.28125 267.777344 311.492188 268.425781 C 310.699219 269.078125 309.878906 269.6875 309.027344 270.253906 C 308.175781 270.824219 307.300781 271.347656 306.398438 271.832031 C 305.496094 272.3125 304.570312 272.75 303.625 273.140625 C 302.679688 273.535156 301.71875 273.878906 300.738281 274.175781 C 299.757812 274.472656 298.765625 274.71875 297.761719 274.921875 C 296.757812 275.121094 295.75 275.269531 294.730469 275.371094 C 293.710938 275.46875 292.691406 275.519531 291.667969 275.519531 C 290.644531 275.519531 289.621094 275.46875 288.605469 275.371094 C 287.585938 275.269531 286.574219 275.121094 285.570312 274.921875 C 284.566406 274.71875 283.574219 274.472656 282.59375 274.175781 C 281.617188 273.878906 280.652344 273.535156 279.707031 273.140625 C 278.761719 272.75 277.839844 272.3125 276.933594 271.832031 C 276.03125 271.347656 275.15625 270.824219 274.304688 270.253906 C 273.453125 269.6875 272.632812 269.078125 271.84375 268.425781 C 271.050781 267.777344 270.292969 267.089844 269.570312 266.367188 C 268.847656 265.644531 268.160156 264.886719 267.511719 264.09375 C 266.859375 263.304688 266.25 262.484375 265.683594 261.632812 C 265.113281 260.78125 264.589844 259.90625 264.105469 259 C 263.625 258.097656 263.1875 257.175781 262.796875 256.230469 C 262.402344 255.285156 262.058594 254.320312 261.761719 253.34375 C 261.464844 252.363281 261.214844 251.371094 261.015625 250.367188 C 260.816406 249.363281 260.667969 248.351562 260.566406 247.332031 C 260.46875 246.316406 260.417969 245.292969 260.417969 244.269531 C 260.417969 243.246094 260.46875 242.226562 260.566406 241.207031 C 260.667969 240.1875 260.816406 239.179688 261.015625 238.175781 C 261.214844 237.171875 261.464844 236.179688 261.761719 235.199219 C 262.058594 234.21875 262.402344 233.257812 262.796875 232.3125 C 263.1875 231.367188 263.625 230.441406 264.105469 229.539062 C 264.589844 228.636719 265.113281 227.761719 265.683594 226.910156 C 266.25 226.058594 266.859375 225.238281 267.511719 224.445312 C 268.160156 223.65625 268.847656 222.898438 269.570312 222.171875 C 270.292969 221.449219 271.050781 220.761719 271.84375 220.113281 C 272.632812 219.464844 273.453125 218.855469 274.304688 218.289062 C 275.15625 217.71875 276.03125 217.191406 276.933594 216.710938 C 277.839844 216.226562 278.761719 215.792969 279.707031 215.398438 C 280.652344 215.007812 281.617188 214.664062 282.59375 214.367188 C 283.574219 214.070312 284.566406 213.820312 285.570312 213.621094 C 286.574219 213.421875 287.585938 213.273438 288.605469 213.171875 C 289.621094 213.070312 290.644531 213.019531 291.667969 213.019531 C 292.691406 213.019531 293.710938 213.070312 294.730469 213.171875 C 295.75 213.273438 296.757812 213.421875 297.761719 213.621094 C 298.765625 213.820312 299.757812 214.070312 300.738281 214.367188 C 301.71875 214.664062 302.679688 215.007812 303.625 215.398438 C 304.570312 215.792969 305.496094 216.226562 306.398438 216.710938 C 307.300781 217.191406 308.175781 217.71875 309.027344 218.289062 C 309.878906 218.855469 310.699219 219.464844 311.492188 220.113281 C 312.28125 220.761719 313.039062 221.449219 313.765625 222.171875 C 314.488281 222.898438 315.175781 223.65625 315.824219 224.445312 C 316.472656 225.238281 317.082031 226.058594 317.648438 226.910156 C 318.21875 227.761719 318.746094 228.636719 319.226562 229.539062 C 319.710938 230.441406 320.144531 231.367188 320.539062 232.3125 C 320.929688 233.257812 321.273438 234.21875 321.570312 235.199219 C 321.867188 236.179688 322.117188 237.171875 322.316406 238.175781 C 322.515625 239.179688 322.664062 240.1875 322.765625 241.207031 C 322.867188 242.226562 322.917969 243.246094 322.917969 244.269531 Z M 322.917969 244.269531 " fill-opacity="1" fill-rule="nonzero"/></svg>