<svg xmlns="http://www.w3.org/2000/svg" xmlns:xlink="http://www.w3.org/1999/xlink" width="500" zoomAndPan="magnify" viewBox="0 0 375 374.999991" height="500" preserveAspectRatio="xMidYMid meet" version="1.0"><defs><clipPath id="13a0a80f38"><path d="M 0.03125 0 L 375 0 L 375 374.25 L 0.03125 374.25 Z M 0.03125 0 " clip-rule="nonzero"/></clipPath></defs><path fill="#c9c9c7" d="M 245.695312 135.777344 C 219.367188 90.515625 290.9375 6.464844 161.664062 6.464844 C 74.433594 6.464844 6.535156 87.515625 6.535156 187.5 C 6.535156 287.484375 80.894531 368.535156 168.128906 368.535156 C 255.363281 368.535156 368.503906 287.484375 368.503906 187.5 C 368.503906 90.515625 276.496094 188.734375 245.695312 135.777344 Z M 203.070312 94.210938 C 192.09375 113.230469 171.039062 121.628906 156.046875 112.96875 C 141.054688 104.308594 137.796875 81.871094 148.773438 62.855469 C 159.753906 43.835938 180.804688 35.4375 195.796875 44.097656 C 210.792969 52.757812 214.046875 75.191406 203.070312 94.210938 Z M 203.070312 94.210938 " fill-opacity="1" fill-rule="nonzero"/><path fill="#0093b9" d="M 90.566406 200.429688 C 90.566406 201.277344 90.523438 202.121094 90.441406 202.964844 C 90.355469 203.808594 90.234375 204.644531 90.066406 205.476562 C 89.902344 206.308594 89.695312 207.128906 89.453125 207.9375 C 89.207031 208.75 88.921875 209.546875 88.597656 210.328125 C 88.273438 211.109375 87.910156 211.875 87.511719 212.621094 C 87.113281 213.371094 86.675781 214.09375 86.207031 214.800781 C 85.738281 215.503906 85.234375 216.183594 84.695312 216.835938 C 84.160156 217.492188 83.589844 218.121094 82.992188 218.71875 C 82.394531 219.316406 81.765625 219.886719 81.113281 220.421875 C 80.457031 220.960938 79.777344 221.464844 79.074219 221.933594 C 78.371094 222.40625 77.644531 222.839844 76.898438 223.238281 C 76.152344 223.636719 75.386719 224 74.605469 224.324219 C 73.820312 224.648438 73.023438 224.933594 72.214844 225.179688 C 71.40625 225.425781 70.585938 225.632812 69.753906 225.796875 C 68.921875 225.960938 68.085938 226.085938 67.242188 226.167969 C 66.402344 226.25 65.554688 226.292969 64.710938 226.292969 C 63.863281 226.292969 63.019531 226.25 62.175781 226.167969 C 61.332031 226.085938 60.496094 225.960938 59.664062 225.796875 C 58.835938 225.632812 58.015625 225.425781 57.203125 225.179688 C 56.394531 224.933594 55.597656 224.648438 54.816406 224.324219 C 54.03125 224 53.269531 223.636719 52.523438 223.238281 C 51.773438 222.839844 51.050781 222.40625 50.34375 221.933594 C 49.640625 221.464844 48.960938 220.960938 48.308594 220.421875 C 47.652344 219.886719 47.027344 219.316406 46.425781 218.71875 C 45.828125 218.121094 45.261719 217.492188 44.722656 216.835938 C 44.1875 216.183594 43.683594 215.503906 43.210938 214.800781 C 42.742188 214.09375 42.308594 213.371094 41.90625 212.621094 C 41.507812 211.875 41.148438 211.109375 40.824219 210.328125 C 40.5 209.546875 40.214844 208.75 39.96875 207.9375 C 39.722656 207.128906 39.515625 206.308594 39.351562 205.476562 C 39.1875 204.644531 39.0625 203.808594 38.980469 202.964844 C 38.894531 202.121094 38.855469 201.277344 38.855469 200.429688 C 38.855469 199.585938 38.894531 198.738281 38.980469 197.894531 C 39.0625 197.054688 39.1875 196.214844 39.351562 195.386719 C 39.515625 194.554688 39.722656 193.734375 39.96875 192.921875 C 40.214844 192.113281 40.5 191.316406 40.824219 190.535156 C 41.148438 189.75 41.507812 188.988281 41.90625 188.238281 C 42.308594 187.492188 42.742188 186.765625 43.210938 186.0625 C 43.683594 185.359375 44.1875 184.679688 44.722656 184.023438 C 45.261719 183.371094 45.828125 182.742188 46.425781 182.144531 C 47.027344 181.542969 47.652344 180.976562 48.308594 180.4375 C 48.960938 179.902344 49.640625 179.398438 50.34375 178.925781 C 51.050781 178.457031 51.773438 178.023438 52.523438 177.621094 C 53.269531 177.222656 54.03125 176.863281 54.816406 176.539062 C 55.597656 176.214844 56.394531 175.929688 57.203125 175.683594 C 58.015625 175.4375 58.835938 175.230469 59.664062 175.066406 C 60.496094 174.902344 61.332031 174.777344 62.175781 174.695312 C 63.019531 174.609375 63.863281 174.570312 64.710938 174.570312 C 65.554688 174.570312 66.402344 174.609375 67.242188 174.695312 C 68.085938 174.777344 68.921875 174.902344 69.753906 175.066406 C 70.585938 175.230469 71.40625 175.4375 72.214844 175.683594 C 73.023438 175.929688 73.820312 176.214844 74.605469 176.539062 C 75.386719 176.863281 76.152344 177.222656 76.898438 177.621094 C 77.644531 178.023438 78.371094 178.457031 79.074219 178.925781 C 79.777344 179.398438 80.457031 179.902344 81.113281 180.4375 C 81.765625 180.976562 82.394531 181.542969 82.992188 182.144531 C 83.589844 182.742188 84.160156 183.371094 84.695312 184.023438 C 85.234375 184.679688 85.738281 185.359375 86.207031 186.0625 C 86.675781 186.765625 87.113281 187.492188 87.511719 188.238281 C 87.910156 188.988281 88.273438 189.75 88.597656 190.535156 C 88.921875 191.316406 89.207031 192.113281 89.453125 192.921875 C 89.695312 193.734375 89.902344 194.554688 90.066406 195.386719 C 90.234375 196.214844 90.355469 197.054688 90.441406 197.894531 C 90.523438 198.738281 90.566406 199.585938 90.566406 200.429688 Z M 90.566406 200.429688 " fill-opacity="1" fill-rule="nonzero"/><path fill="#f6bc1b" d="M 117.796875 276.613281 C 117.796875 277.460938 117.753906 278.304688 117.671875 279.148438 C 117.585938 279.992188 117.464844 280.828125 117.296875 281.65625 C 117.132812 282.488281 116.929688 283.308594 116.683594 284.121094 C 116.4375 284.929688 116.152344 285.726562 115.828125 286.507812 C 115.503906 287.292969 115.140625 288.058594 114.742188 288.804688 C 114.34375 289.550781 113.910156 290.277344 113.4375 290.980469 C 112.96875 291.683594 112.464844 292.363281 111.925781 293.019531 C 111.390625 293.675781 110.820312 294.300781 110.222656 294.898438 C 109.625 295.5 108.996094 296.066406 108.34375 296.605469 C 107.6875 297.140625 107.007812 297.644531 106.304688 298.117188 C 105.601562 298.585938 104.875 299.023438 104.128906 299.421875 C 103.382812 299.820312 102.617188 300.183594 101.835938 300.507812 C 101.050781 300.832031 100.257812 301.113281 99.445312 301.359375 C 98.636719 301.605469 97.816406 301.8125 96.984375 301.976562 C 96.152344 302.144531 95.316406 302.265625 94.476562 302.351562 C 93.632812 302.433594 92.789062 302.476562 91.941406 302.476562 C 91.09375 302.476562 90.25 302.433594 89.40625 302.351562 C 88.5625 302.265625 87.726562 302.144531 86.898438 301.976562 C 86.066406 301.8125 85.246094 301.605469 84.433594 301.359375 C 83.625 301.113281 82.828125 300.832031 82.046875 300.507812 C 81.265625 300.183594 80.5 299.820312 79.753906 299.421875 C 79.003906 299.023438 78.28125 298.585938 77.578125 298.117188 C 76.871094 297.644531 76.191406 297.140625 75.539062 296.605469 C 74.882812 296.066406 74.257812 295.5 73.660156 294.898438 C 73.058594 294.300781 72.492188 293.675781 71.953125 293.019531 C 71.417969 292.363281 70.914062 291.683594 70.441406 290.980469 C 69.972656 290.277344 69.539062 289.550781 69.136719 288.804688 C 68.738281 288.058594 68.378906 287.292969 68.054688 286.507812 C 67.730469 285.726562 67.445312 284.929688 67.199219 284.121094 C 66.953125 283.308594 66.746094 282.488281 66.582031 281.65625 C 66.417969 280.828125 66.292969 279.992188 66.210938 279.148438 C 66.128906 278.304688 66.085938 277.460938 66.085938 276.613281 C 66.085938 275.765625 66.128906 274.921875 66.210938 274.078125 C 66.292969 273.234375 66.417969 272.398438 66.582031 271.566406 C 66.746094 270.738281 66.953125 269.914062 67.199219 269.105469 C 67.445312 268.292969 67.730469 267.5 68.054688 266.714844 C 68.378906 265.933594 68.738281 265.167969 69.136719 264.421875 C 69.539062 263.675781 69.972656 262.949219 70.441406 262.246094 C 70.914062 261.539062 71.417969 260.859375 71.953125 260.207031 C 72.492188 259.550781 73.058594 258.925781 73.660156 258.324219 C 74.257812 257.726562 74.882812 257.160156 75.539062 256.621094 C 76.191406 256.082031 76.871094 255.578125 77.578125 255.109375 C 78.28125 254.636719 79.003906 254.203125 79.753906 253.804688 C 80.5 253.40625 81.265625 253.042969 82.046875 252.71875 C 82.828125 252.394531 83.625 252.109375 84.433594 251.863281 C 85.246094 251.617188 86.066406 251.414062 86.894531 251.246094 C 87.726562 251.082031 88.5625 250.957031 89.40625 250.875 C 90.25 250.792969 91.09375 250.75 91.941406 250.75 C 92.789062 250.75 93.632812 250.792969 94.476562 250.875 C 95.316406 250.957031 96.152344 251.082031 96.984375 251.246094 C 97.816406 251.414062 98.636719 251.617188 99.445312 251.863281 C 100.257812 252.109375 101.050781 252.394531 101.835938 252.71875 C 102.617188 253.042969 103.382812 253.40625 104.128906 253.804688 C 104.875 254.203125 105.601562 254.636719 106.304688 255.109375 C 107.007812 255.578125 107.6875 256.082031 108.34375 256.621094 C 108.996094 257.160156 109.625 257.726562 110.222656 258.324219 C 110.820312 258.925781 111.390625 259.550781 111.925781 260.207031 C 112.464844 260.859375 112.96875 261.539062 113.4375 262.246094 C 113.910156 262.949219 114.34375 263.675781 114.742188 264.421875 C 115.140625 265.167969 115.503906 265.933594 115.828125 266.714844 C 116.152344 267.5 116.4375 268.292969 116.683594 269.105469 C 116.929688 269.914062 117.132812 270.738281 117.296875 271.566406 C 117.464844 272.398438 117.585938 273.234375 117.671875 274.078125 C 117.753906 274.921875 117.796875 275.765625 117.796875 276.613281 Z M 117.796875 276.613281 " fill-opacity="1" fill-rule="nonzero"/><path fill="#85bb40" d="M 189.414062 312.054688 C 189.414062 312.898438 189.371094 313.746094 189.289062 314.589844 C 189.203125 315.429688 189.082031 316.269531 188.914062 317.097656 C 188.75 317.929688 188.542969 318.75 188.300781 319.5625 C 188.054688 320.371094 187.769531 321.167969 187.445312 321.949219 C 187.121094 322.734375 186.757812 323.496094 186.359375 324.246094 C 185.960938 324.992188 185.527344 325.71875 185.054688 326.421875 C 184.585938 327.125 184.082031 327.804688 183.542969 328.460938 C 183.007812 329.113281 182.4375 329.742188 181.839844 330.339844 C 181.242188 330.941406 180.613281 331.507812 179.960938 332.046875 C 179.304688 332.582031 178.625 333.085938 177.921875 333.558594 C 177.21875 334.027344 176.492188 334.460938 175.746094 334.863281 C 175 335.261719 174.234375 335.621094 173.453125 335.945312 C 172.667969 336.269531 171.875 336.554688 171.0625 336.800781 C 170.253906 337.046875 169.433594 337.253906 168.601562 337.417969 C 167.769531 337.582031 166.933594 337.707031 166.089844 337.789062 C 165.25 337.875 164.40625 337.914062 163.558594 337.914062 C 162.710938 337.914062 161.867188 337.875 161.023438 337.789062 C 160.179688 337.707031 159.34375 337.582031 158.511719 337.417969 C 157.683594 337.253906 156.863281 337.046875 156.050781 336.800781 C 155.242188 336.554688 154.445312 336.269531 153.664062 335.945312 C 152.882812 335.621094 152.117188 335.261719 151.371094 334.863281 C 150.621094 334.460938 149.898438 334.027344 149.195312 333.558594 C 148.488281 333.085938 147.808594 332.582031 147.15625 332.046875 C 146.5 331.507812 145.875 330.941406 145.277344 330.339844 C 144.675781 329.742188 144.109375 329.113281 143.570312 328.460938 C 143.035156 327.804688 142.53125 327.125 142.058594 326.421875 C 141.589844 325.71875 141.15625 324.992188 140.753906 324.246094 C 140.355469 323.496094 139.996094 322.734375 139.671875 321.949219 C 139.347656 321.167969 139.0625 320.371094 138.816406 319.5625 C 138.570312 318.75 138.363281 317.929688 138.199219 317.097656 C 138.035156 316.269531 137.910156 315.429688 137.828125 314.589844 C 137.746094 313.746094 137.703125 312.898438 137.703125 312.054688 C 137.703125 311.207031 137.746094 310.363281 137.828125 309.519531 C 137.910156 308.675781 138.035156 307.839844 138.199219 307.007812 C 138.363281 306.175781 138.570312 305.355469 138.816406 304.546875 C 139.0625 303.734375 139.347656 302.9375 139.671875 302.15625 C 139.996094 301.375 140.355469 300.609375 140.753906 299.863281 C 141.15625 299.113281 141.589844 298.390625 142.058594 297.683594 C 142.53125 296.980469 143.035156 296.300781 143.570312 295.648438 C 144.109375 294.992188 144.675781 294.363281 145.277344 293.765625 C 145.875 293.167969 146.5 292.597656 147.15625 292.0625 C 147.808594 291.523438 148.488281 291.019531 149.195312 290.550781 C 149.898438 290.078125 150.621094 289.644531 151.371094 289.246094 C 152.117188 288.847656 152.882812 288.484375 153.664062 288.160156 C 154.445312 287.835938 155.242188 287.550781 156.050781 287.304688 C 156.863281 287.058594 157.683594 286.851562 158.511719 286.6875 C 159.34375 286.523438 160.179688 286.398438 161.023438 286.316406 C 161.867188 286.234375 162.710938 286.191406 163.558594 286.191406 C 164.40625 286.191406 165.25 286.234375 166.089844 286.316406 C 166.933594 286.398438 167.769531 286.523438 168.601562 286.6875 C 169.433594 286.851562 170.253906 287.058594 171.0625 287.304688 C 171.875 287.550781 172.667969 287.835938 173.453125 288.160156 C 174.234375 288.484375 175 288.847656 175.746094 289.246094 C 176.492188 289.644531 177.21875 290.078125 177.921875 290.550781 C 178.625 291.019531 179.304688 291.523438 179.960938 292.0625 C 180.613281 292.597656 181.242188 293.167969 181.839844 293.765625 C 182.4375 294.363281 183.007812 294.992188 183.542969 295.648438 C 184.082031 296.300781 184.585938 296.980469 185.054688 297.683594 C 185.527344 298.390625 185.960938 299.113281 186.359375 299.863281 C 186.757812 300.609375 187.121094 301.375 187.445312 302.15625 C 187.769531 302.9375 188.054688 303.734375 188.300781 304.546875 C 188.542969 305.355469 188.75 306.175781 188.914062 307.007812 C 189.082031 307.839844 189.203125 308.675781 189.289062 309.519531 C 189.371094 310.363281 189.414062 311.207031 189.414062 312.054688 Z M 189.414062 312.054688 " fill-opacity="1" fill-rule="nonzero"/><path fill="#a17834" d="M 271.546875 290.949219 C 271.546875 291.796875 271.507812 292.640625 271.425781 293.484375 C 271.339844 294.324219 271.214844 295.164062 271.050781 295.992188 C 270.886719 296.824219 270.679688 297.644531 270.433594 298.457031 C 270.1875 299.265625 269.90625 300.0625 269.582031 300.84375 C 269.257812 301.628906 268.894531 302.390625 268.496094 303.140625 C 268.097656 303.886719 267.660156 304.613281 267.191406 305.316406 C 266.71875 306.019531 266.214844 306.699219 265.679688 307.355469 C 265.140625 308.007812 264.574219 308.636719 263.976562 309.234375 C 263.375 309.835938 262.75 310.402344 262.09375 310.941406 C 261.441406 311.476562 260.761719 311.980469 260.058594 312.453125 C 259.355469 312.921875 258.628906 313.355469 257.882812 313.757812 C 257.132812 314.15625 256.371094 314.515625 255.585938 314.839844 C 254.804688 315.164062 254.007812 315.449219 253.199219 315.695312 C 252.386719 315.941406 251.566406 316.148438 250.738281 316.3125 C 249.90625 316.480469 249.070312 316.601562 248.226562 316.6875 C 247.386719 316.769531 246.539062 316.808594 245.695312 316.808594 C 244.847656 316.808594 244.003906 316.769531 243.160156 316.6875 C 242.316406 316.601562 241.480469 316.480469 240.648438 316.3125 C 239.820312 316.148438 239 315.941406 238.1875 315.695312 C 237.378906 315.449219 236.582031 315.164062 235.800781 314.839844 C 235.015625 314.515625 234.253906 314.15625 233.503906 313.757812 C 232.757812 313.355469 232.035156 312.921875 231.328125 312.453125 C 230.625 311.980469 229.945312 311.476562 229.292969 310.941406 C 228.636719 310.402344 228.011719 309.835938 227.410156 309.234375 C 226.8125 308.636719 226.246094 308.007812 225.707031 307.355469 C 225.171875 306.699219 224.667969 306.019531 224.195312 305.316406 C 223.726562 304.613281 223.289062 303.886719 222.890625 303.140625 C 222.492188 302.390625 222.128906 301.628906 221.808594 300.84375 C 221.484375 300.0625 221.199219 299.265625 220.953125 298.457031 C 220.707031 297.644531 220.5 296.824219 220.335938 295.992188 C 220.171875 295.164062 220.046875 294.324219 219.964844 293.484375 C 219.878906 292.640625 219.839844 291.796875 219.839844 290.949219 C 219.839844 290.101562 219.878906 289.257812 219.964844 288.414062 C 220.046875 287.570312 220.171875 286.734375 220.335938 285.902344 C 220.5 285.070312 220.707031 284.25 220.953125 283.441406 C 221.199219 282.628906 221.484375 281.832031 221.808594 281.050781 C 222.128906 280.269531 222.492188 279.503906 222.890625 278.757812 C 223.289062 278.011719 223.726562 277.285156 224.195312 276.578125 C 224.667969 275.875 225.171875 275.195312 225.707031 274.542969 C 226.246094 273.886719 226.8125 273.261719 227.410156 272.660156 C 228.011719 272.0625 228.636719 271.492188 229.292969 270.957031 C 229.945312 270.417969 230.625 269.914062 231.328125 269.445312 C 232.035156 268.972656 232.757812 268.539062 233.503906 268.140625 C 234.253906 267.742188 235.015625 267.378906 235.800781 267.054688 C 236.582031 266.730469 237.378906 266.445312 238.1875 266.199219 C 239 265.953125 239.820312 265.75 240.648438 265.582031 C 241.480469 265.417969 242.316406 265.292969 243.160156 265.210938 C 244.003906 265.128906 244.847656 265.085938 245.695312 265.085938 C 246.539062 265.085938 247.386719 265.128906 248.226562 265.210938 C 249.070312 265.292969 249.90625 265.417969 250.738281 265.582031 C 251.566406 265.75 252.386719 265.953125 253.199219 266.199219 C 254.007812 266.445312 254.804688 266.730469 255.585938 267.054688 C 256.371094 267.378906 257.132812 267.742188 257.882812 268.140625 C 258.628906 268.539062 259.355469 268.972656 260.058594 269.445312 C 260.761719 269.914062 261.441406 270.417969 262.09375 270.957031 C 262.75 271.492188 263.375 272.0625 263.976562 272.660156 C 264.574219 273.261719 265.140625 273.886719 265.679688 274.542969 C 266.214844 275.195312 266.71875 275.875 267.191406 276.578125 C 267.660156 277.285156 268.097656 278.011719 268.496094 278.757812 C 268.894531 279.503906 269.257812 280.269531 269.582031 281.050781 C 269.902344 281.832031 270.1875 282.628906 270.433594 283.441406 C 270.679688 284.25 270.886719 285.070312 271.050781 285.902344 C 271.214844 286.734375 271.339844 287.570312 271.425781 288.414062 C 271.507812 289.257812 271.546875 290.101562 271.546875 290.949219 Z M 271.546875 290.949219 " fill-opacity="1" fill-rule="nonzero"/><path fill="#e8732d" d="M 325.410156 230.085938 C 325.410156 230.929688 325.367188 231.777344 325.285156 232.621094 C 325.203125 233.460938 325.078125 234.300781 324.914062 235.128906 C 324.746094 235.960938 324.542969 236.78125 324.296875 237.589844 C 324.050781 238.402344 323.765625 239.199219 323.441406 239.980469 C 323.117188 240.765625 322.753906 241.527344 322.355469 242.277344 C 321.957031 243.023438 321.523438 243.75 321.050781 244.453125 C 320.582031 245.15625 320.078125 245.835938 319.539062 246.492188 C 319.003906 247.144531 318.4375 247.773438 317.835938 248.371094 C 317.238281 248.96875 316.613281 249.539062 315.957031 250.074219 C 315.300781 250.613281 314.621094 251.117188 313.917969 251.585938 C 313.214844 252.058594 312.488281 252.492188 311.742188 252.894531 C 310.996094 253.292969 310.230469 253.652344 309.449219 253.976562 C 308.667969 254.300781 307.871094 254.585938 307.058594 254.832031 C 306.25 255.078125 305.429688 255.285156 304.597656 255.449219 C 303.769531 255.613281 302.933594 255.738281 302.089844 255.820312 C 301.246094 255.90625 300.402344 255.945312 299.554688 255.945312 C 298.707031 255.945312 297.863281 255.90625 297.019531 255.820312 C 296.179688 255.738281 295.339844 255.613281 294.511719 255.449219 C 293.679688 255.285156 292.859375 255.078125 292.050781 254.832031 C 291.238281 254.585938 290.441406 254.300781 289.660156 253.976562 C 288.878906 253.652344 288.113281 253.292969 287.367188 252.894531 C 286.621094 252.492188 285.894531 252.058594 285.191406 251.585938 C 284.488281 251.117188 283.808594 250.613281 283.152344 250.074219 C 282.5 249.539062 281.871094 248.96875 281.273438 248.371094 C 280.675781 247.773438 280.105469 247.144531 279.570312 246.492188 C 279.03125 245.835938 278.527344 245.15625 278.058594 244.453125 C 277.585938 243.75 277.152344 243.023438 276.753906 242.277344 C 276.355469 241.527344 275.992188 240.765625 275.667969 239.980469 C 275.34375 239.199219 275.058594 238.402344 274.8125 237.589844 C 274.566406 236.78125 274.363281 235.960938 274.195312 235.128906 C 274.03125 234.300781 273.90625 233.460938 273.824219 232.621094 C 273.742188 231.777344 273.699219 230.929688 273.699219 230.085938 C 273.699219 229.238281 273.742188 228.390625 273.824219 227.550781 C 273.90625 226.707031 274.03125 225.871094 274.195312 225.039062 C 274.363281 224.207031 274.566406 223.386719 274.8125 222.578125 C 275.058594 221.765625 275.34375 220.96875 275.667969 220.1875 C 275.992188 219.40625 276.355469 218.640625 276.753906 217.894531 C 277.152344 217.144531 277.585938 216.421875 278.058594 215.714844 C 278.527344 215.011719 279.03125 214.332031 279.570312 213.675781 C 280.105469 213.023438 280.675781 212.394531 281.273438 211.796875 C 281.871094 211.199219 282.5 210.628906 283.152344 210.09375 C 283.808594 209.554688 284.488281 209.050781 285.191406 208.582031 C 285.894531 208.109375 286.621094 207.675781 287.367188 207.277344 C 288.113281 206.875 288.878906 206.515625 289.660156 206.191406 C 290.441406 205.867188 291.238281 205.582031 292.050781 205.335938 C 292.859375 205.089844 293.679688 204.882812 294.511719 204.71875 C 295.339844 204.554688 296.179688 204.429688 297.019531 204.347656 C 297.863281 204.265625 298.707031 204.222656 299.554688 204.222656 C 300.402344 204.222656 301.246094 204.265625 302.089844 204.347656 C 302.933594 204.429688 303.769531 204.554688 304.597656 204.71875 C 305.429688 204.882812 306.25 205.089844 307.058594 205.335938 C 307.871094 205.582031 308.667969 205.867188 309.449219 206.191406 C 310.230469 206.515625 310.996094 206.875 311.742188 207.277344 C 312.488281 207.675781 313.214844 208.109375 313.917969 208.582031 C 314.621094 209.050781 315.300781 209.554688 315.957031 210.09375 C 316.613281 210.628906 317.238281 211.199219 317.835938 211.796875 C 318.4375 212.394531 319.003906 213.023438 319.539062 213.675781 C 320.078125 214.332031 320.582031 215.011719 321.050781 215.714844 C 321.523438 216.421875 321.957031 217.144531 322.355469 217.894531 C 322.753906 218.640625 323.117188 219.40625 323.441406 220.1875 C 323.765625 220.96875 324.050781 221.765625 324.296875 222.578125 C 324.542969 223.386719 324.746094 224.207031 324.914062 225.039062 C 325.078125 225.871094 325.203125 226.707031 325.285156 227.550781 C 325.367188 228.390625 325.410156 229.238281 325.410156 230.085938 Z M 325.410156 230.085938 " fill-opacity="1" fill-rule="nonzero"/><path fill="#eb5849" d="M 103.492188 122.84375 C 103.492188 123.691406 103.449219 124.535156 103.367188 125.378906 C 103.285156 126.222656 103.160156 127.058594 102.996094 127.890625 C 102.828125 128.722656 102.625 129.542969 102.378906 130.351562 C 102.132812 131.164062 101.847656 131.960938 101.523438 132.742188 C 101.199219 133.523438 100.839844 134.289062 100.4375 135.035156 C 100.039062 135.78125 99.605469 136.507812 99.132812 137.214844 C 98.664062 137.917969 98.160156 138.597656 97.625 139.25 C 97.085938 139.90625 96.519531 140.53125 95.917969 141.132812 C 95.320312 141.730469 94.695312 142.300781 94.039062 142.835938 C 93.382812 143.375 92.707031 143.878906 92 144.347656 C 91.296875 144.820312 90.570312 145.253906 89.824219 145.652344 C 89.078125 146.050781 88.3125 146.414062 87.53125 146.738281 C 86.75 147.0625 85.953125 147.347656 85.140625 147.59375 C 84.332031 147.839844 83.511719 148.042969 82.679688 148.210938 C 81.851562 148.375 81.015625 148.5 80.171875 148.582031 C 79.328125 148.664062 78.484375 148.707031 77.636719 148.707031 C 76.789062 148.707031 75.945312 148.664062 75.101562 148.582031 C 74.261719 148.5 73.421875 148.375 72.59375 148.210938 C 71.761719 148.042969 70.941406 147.839844 70.132812 147.59375 C 69.320312 147.347656 68.523438 147.0625 67.742188 146.738281 C 66.960938 146.414062 66.195312 146.050781 65.449219 145.652344 C 64.703125 145.253906 63.976562 144.820312 63.273438 144.347656 C 62.570312 143.878906 61.890625 143.375 61.234375 142.835938 C 60.582031 142.300781 59.953125 141.730469 59.355469 141.132812 C 58.757812 140.53125 58.1875 139.90625 57.652344 139.25 C 57.113281 138.597656 56.609375 137.917969 56.140625 137.214844 C 55.667969 136.507812 55.234375 135.78125 54.835938 135.035156 C 54.4375 134.289062 54.074219 133.523438 53.75 132.742188 C 53.425781 131.960938 53.140625 131.164062 52.894531 130.351562 C 52.648438 129.542969 52.445312 128.722656 52.277344 127.890625 C 52.113281 127.058594 51.988281 126.222656 51.90625 125.378906 C 51.824219 124.535156 51.78125 123.691406 51.78125 122.84375 C 51.78125 121.996094 51.824219 121.152344 51.90625 120.308594 C 51.988281 119.46875 52.113281 118.628906 52.277344 117.800781 C 52.445312 116.96875 52.648438 116.148438 52.894531 115.335938 C 53.140625 114.527344 53.425781 113.730469 53.75 112.949219 C 54.074219 112.164062 54.4375 111.402344 54.835938 110.652344 C 55.234375 109.90625 55.667969 109.179688 56.140625 108.476562 C 56.609375 107.773438 57.113281 107.09375 57.652344 106.4375 C 58.1875 105.785156 58.757812 105.15625 59.355469 104.558594 C 59.953125 103.957031 60.582031 103.390625 61.234375 102.851562 C 61.890625 102.316406 62.570312 101.8125 63.273438 101.339844 C 63.976562 100.871094 64.703125 100.4375 65.449219 100.035156 C 66.195312 99.636719 66.960938 99.277344 67.742188 98.953125 C 68.523438 98.628906 69.320312 98.34375 70.132812 98.097656 C 70.941406 97.851562 71.761719 97.644531 72.59375 97.480469 C 73.421875 97.3125 74.261719 97.191406 75.101562 97.105469 C 75.945312 97.023438 76.789062 96.984375 77.636719 96.984375 C 78.484375 96.984375 79.328125 97.023438 80.171875 97.105469 C 81.015625 97.191406 81.851562 97.3125 82.679688 97.480469 C 83.511719 97.644531 84.332031 97.851562 85.140625 98.097656 C 85.953125 98.34375 86.75 98.628906 87.53125 98.953125 C 88.3125 99.277344 89.078125 99.636719 89.824219 100.035156 C 90.570312 100.4375 91.296875 100.871094 92 101.339844 C 92.707031 101.8125 93.382812 102.316406 94.039062 102.851562 C 94.695312 103.390625 95.320312 103.957031 95.917969 104.558594 C 96.519531 105.15625 97.085938 105.785156 97.625 106.4375 C 98.160156 107.09375 98.664062 107.773438 99.132812 108.476562 C 99.605469 109.179688 100.039062 109.90625 100.4375 110.652344 C 100.839844 111.402344 101.199219 112.164062 101.523438 112.949219 C 101.847656 113.730469 102.132812 114.527344 102.378906 115.335938 C 102.625 116.148438 102.828125 116.96875 102.996094 117.800781 C 103.160156 118.628906 103.285156 119.46875 103.367188 120.308594 C 103.449219 121.152344 103.492188 121.996094 103.492188 122.84375 Z M 103.492188 122.84375 " fill-opacity="1" fill-rule="nonzero"/><path fill="#e8ae48" d="M 368.503906 25.863281 C 368.507812 27.578125 368.179688 29.226562 367.523438 30.8125 C 366.867188 32.394531 365.929688 33.792969 364.714844 35.003906 L 191.035156 208.730469 L 172.757812 190.449219 L 346.4375 16.722656 C 347.34375 15.816406 348.359375 15.066406 349.484375 14.460938 C 350.613281 13.859375 351.800781 13.433594 353.054688 13.183594 C 354.308594 12.9375 355.570312 12.875 356.84375 13 C 358.117188 13.125 359.34375 13.433594 360.523438 13.921875 C 361.703125 14.410156 362.789062 15.058594 363.777344 15.871094 C 364.765625 16.683594 365.613281 17.617188 366.324219 18.679688 C 367.035156 19.742188 367.574219 20.886719 367.945312 22.109375 C 368.316406 23.332031 368.503906 24.582031 368.503906 25.863281 Z M 368.503906 25.863281 " fill-opacity="1" fill-rule="nonzero"/><path fill="#ce882a" d="M 172.757812 190.449219 L 195.609375 167.59375 L 213.882812 185.875 L 191.035156 208.730469 Z M 172.757812 190.449219 " fill-opacity="1" fill-rule="nonzero"/><path fill="#808080" d="M 149.902344 195.015625 C 158.738281 186.179688 176.371094 184.914062 186.464844 195.015625 C 196.5625 205.117188 195.300781 222.753906 186.464844 231.589844 C 170.46875 247.59375 136.191406 245.304688 136.191406 245.304688 C 136.191406 245.304688 133.90625 211.019531 149.902344 195.015625 Z M 149.902344 195.015625 " fill-opacity="1" fill-rule="nonzero"/><g clip-path="url(#13a0a80f38)"><path fill="#000000" d="M 360.269531 142.652344 C 346.570312 131.8125 326.703125 136.515625 307.488281 141.0625 C 295.28125 143.953125 282.65625 146.941406 272.195312 145.890625 L 270.902344 158.757812 C 283.515625 160.023438 297.214844 156.78125 310.464844 153.644531 C 327.433594 149.628906 343.453125 145.835938 352.246094 152.792969 C 358.746094 157.933594 362.039062 169.613281 362.039062 187.5 C 362.039062 210.289062 355.90625 232.945312 343.804688 254.839844 C 332.726562 274.886719 316.496094 294.152344 296.882812 310.550781 C 258.296875 342.808594 210.160156 362.070312 168.128906 362.070312 C 127.570312 362.070312 88.964844 343.996094 59.425781 311.183594 C 29.488281 277.9375 13 234.007812 13 187.5 C 13 140.472656 28.382812 96.496094 56.308594 63.679688 C 84.160156 30.953125 121.574219 12.929688 161.664062 12.929688 C 195.167969 12.929688 216.5625 18.578125 227.070312 30.195312 C 238.386719 42.707031 236.457031 61.976562 234.414062 82.378906 C 233.953125 87.023438 233.46875 91.824219 233.152344 96.550781 L 246.050781 97.414062 C 246.355469 92.902344 246.824219 88.203125 247.28125 83.664062 C 249.511719 61.355469 251.820312 38.285156 236.652344 21.515625 C 223.375 6.835938 199.546875 0 161.664062 0 C 117.722656 0 76.8125 19.640625 46.464844 55.296875 C 16.550781 90.457031 0.0742188 137.40625 0.0742188 187.5 C 0.0742188 237.207031 17.738281 284.207031 49.816406 319.835938 C 57.3125 328.257812 65.558594 335.859375 74.5625 342.644531 C 83.566406 349.425781 93.144531 355.261719 103.304688 360.144531 C 113.414062 365.019531 123.941406 368.710938 134.882812 371.214844 C 145.824219 373.722656 156.90625 374.984375 168.128906 375 C 213.097656 375 264.328125 354.617188 305.175781 320.472656 C 326.300781 302.808594 343.105469 282.832031 355.121094 261.09375 C 368.289062 237.265625 374.96875 212.503906 374.96875 187.5 C 374.96875 165.148438 370.160156 150.476562 360.269531 142.652344 Z M 360.269531 142.652344 " fill-opacity="1" fill-rule="nonzero"/></g><path fill="#000000" d="M 152.816406 118.566406 C 155.28125 119.988281 157.894531 121.066406 160.644531 121.792969 C 163.398438 122.523438 166.199219 122.882812 169.046875 122.867188 C 174.035156 122.828125 178.839844 121.863281 183.460938 119.976562 C 193.683594 115.894531 202.636719 107.894531 208.667969 97.445312 C 214.699219 86.996094 217.152344 75.238281 215.570312 64.339844 C 213.90625 52.875 208.03125 43.695312 199.03125 38.5 C 190.027344 33.300781 179.144531 32.796875 168.386719 37.09375 C 158.160156 41.171875 149.207031 49.171875 143.175781 59.621094 C 137.144531 70.070312 134.695312 81.828125 136.273438 92.726562 C 137.941406 104.191406 143.808594 113.371094 152.816406 118.566406 Z M 154.375 66.085938 C 158.957031 58.140625 165.636719 52.105469 173.175781 49.101562 C 176.246094 47.835938 179.445312 47.1875 182.769531 47.152344 C 186.261719 47.117188 189.53125 47.964844 192.566406 49.695312 C 198.066406 52.875 201.695312 58.734375 202.777344 66.199219 C 203.941406 74.230469 202.058594 83.03125 197.472656 90.980469 C 192.886719 98.925781 186.207031 104.960938 178.671875 107.964844 C 171.667969 110.757812 164.777344 110.550781 159.28125 107.371094 C 153.78125 104.1875 150.148438 98.332031 149.070312 90.867188 C 147.902344 82.832031 149.789062 74.03125 154.375 66.085938 Z M 154.375 66.085938 " fill-opacity="1" fill-rule="nonzero"/><path fill="#000000" d="M 32.390625 200.429688 C 32.390625 201.488281 32.441406 202.546875 32.546875 203.601562 C 32.652344 204.652344 32.804688 205.699219 33.011719 206.738281 C 33.21875 207.777344 33.476562 208.800781 33.78125 209.816406 C 34.089844 210.828125 34.445312 211.824219 34.851562 212.800781 C 35.257812 213.78125 35.707031 214.738281 36.207031 215.671875 C 36.707031 216.605469 37.25 217.511719 37.835938 218.390625 C 38.425781 219.273438 39.054688 220.121094 39.726562 220.9375 C 40.398438 221.757812 41.109375 222.542969 41.855469 223.289062 C 42.605469 224.039062 43.390625 224.75 44.207031 225.421875 C 45.023438 226.09375 45.875 226.722656 46.753906 227.308594 C 47.632812 227.898438 48.542969 228.441406 49.476562 228.941406 C 50.410156 229.441406 51.363281 229.894531 52.34375 230.296875 C 53.320312 230.703125 54.316406 231.058594 55.328125 231.367188 C 56.339844 231.675781 57.367188 231.929688 58.40625 232.136719 C 59.441406 232.34375 60.488281 232.5 61.542969 232.601562 C 62.59375 232.707031 63.652344 232.757812 64.710938 232.757812 C 65.769531 232.757812 66.824219 232.707031 67.878906 232.601562 C 68.929688 232.5 69.976562 232.34375 71.015625 232.136719 C 72.054688 231.929688 73.078125 231.675781 74.089844 231.367188 C 75.105469 231.058594 76.097656 230.703125 77.078125 230.296875 C 78.054688 229.894531 79.011719 229.441406 79.945312 228.941406 C 80.878906 228.441406 81.785156 227.898438 82.664062 227.308594 C 83.546875 226.722656 84.394531 226.09375 85.210938 225.421875 C 86.03125 224.75 86.8125 224.039062 87.5625 223.289062 C 88.3125 222.542969 89.019531 221.757812 89.691406 220.9375 C 90.363281 220.121094 90.992188 219.273438 91.582031 218.390625 C 92.167969 217.511719 92.714844 216.605469 93.210938 215.671875 C 93.710938 214.738281 94.164062 213.78125 94.566406 212.800781 C 94.972656 211.824219 95.328125 210.828125 95.636719 209.816406 C 95.945312 208.800781 96.199219 207.777344 96.40625 206.738281 C 96.613281 205.699219 96.769531 204.652344 96.871094 203.601562 C 96.976562 202.546875 97.027344 201.488281 97.027344 200.429688 C 97.027344 199.371094 96.976562 198.316406 96.871094 197.261719 C 96.769531 196.207031 96.613281 195.164062 96.40625 194.125 C 96.199219 193.085938 95.945312 192.058594 95.636719 191.046875 C 95.328125 190.035156 94.972656 189.039062 94.566406 188.058594 C 94.164062 187.082031 93.710938 186.125 93.210938 185.191406 C 92.714844 184.257812 92.167969 183.351562 91.582031 182.472656 C 90.992188 181.589844 90.363281 180.742188 89.691406 179.921875 C 89.019531 179.105469 88.3125 178.320312 87.5625 177.570312 C 86.8125 176.824219 86.03125 176.113281 85.210938 175.441406 C 84.394531 174.769531 83.546875 174.140625 82.664062 173.550781 C 81.785156 172.964844 80.878906 172.417969 79.945312 171.921875 C 79.011719 171.421875 78.054688 170.96875 77.078125 170.5625 C 76.097656 170.160156 75.105469 169.804688 74.089844 169.496094 C 73.078125 169.1875 72.054688 168.929688 71.015625 168.722656 C 69.976562 168.519531 68.929688 168.363281 67.878906 168.257812 C 66.824219 168.15625 65.769531 168.101562 64.710938 168.101562 C 63.652344 168.105469 62.597656 168.15625 61.542969 168.261719 C 60.488281 168.367188 59.445312 168.523438 58.40625 168.730469 C 57.371094 168.9375 56.34375 169.195312 55.332031 169.503906 C 54.320312 169.8125 53.324219 170.167969 52.347656 170.574219 C 51.371094 170.980469 50.414062 171.433594 49.480469 171.929688 C 48.550781 172.429688 47.644531 172.972656 46.761719 173.5625 C 45.882812 174.152344 45.035156 174.78125 44.21875 175.453125 C 43.398438 176.125 42.617188 176.835938 41.867188 177.582031 C 41.121094 178.332031 40.410156 179.113281 39.738281 179.933594 C 39.066406 180.75 38.4375 181.597656 37.847656 182.480469 C 37.261719 183.359375 36.71875 184.265625 36.21875 185.199219 C 35.71875 186.132812 35.265625 187.085938 34.859375 188.066406 C 34.457031 189.042969 34.097656 190.039062 33.789062 191.050781 C 33.484375 192.0625 33.226562 193.089844 33.019531 194.125 C 32.8125 195.164062 32.65625 196.210938 32.550781 197.261719 C 32.445312 198.316406 32.390625 199.371094 32.390625 200.429688 Z M 64.710938 181.035156 C 65.34375 181.035156 65.976562 181.066406 66.609375 181.128906 C 67.242188 181.191406 67.871094 181.285156 68.492188 181.40625 C 69.117188 181.53125 69.730469 181.683594 70.339844 181.871094 C 70.945312 182.054688 71.542969 182.269531 72.128906 182.511719 C 72.71875 182.753906 73.289062 183.023438 73.851562 183.324219 C 74.410156 183.625 74.953125 183.949219 75.484375 184.304688 C 76.011719 184.65625 76.519531 185.035156 77.011719 185.4375 C 77.503906 185.839844 77.972656 186.265625 78.421875 186.714844 C 78.871094 187.164062 79.296875 187.636719 79.699219 188.125 C 80.101562 188.617188 80.480469 189.125 80.832031 189.65625 C 81.1875 190.183594 81.511719 190.726562 81.8125 191.289062 C 82.109375 191.847656 82.382812 192.421875 82.625 193.007812 C 82.867188 193.59375 83.082031 194.191406 83.265625 194.800781 C 83.449219 195.410156 83.605469 196.023438 83.726562 196.648438 C 83.851562 197.269531 83.945312 197.898438 84.007812 198.53125 C 84.070312 199.160156 84.101562 199.796875 84.101562 200.429688 C 84.101562 201.066406 84.070312 201.699219 84.007812 202.332031 C 83.945312 202.964844 83.851562 203.59375 83.726562 204.214844 C 83.605469 204.839844 83.449219 205.453125 83.265625 206.0625 C 83.082031 206.667969 82.867188 207.265625 82.625 207.855469 C 82.382812 208.441406 82.109375 209.015625 81.8125 209.574219 C 81.511719 210.132812 81.1875 210.679688 80.832031 211.207031 C 80.480469 211.734375 80.101562 212.246094 79.699219 212.734375 C 79.296875 213.226562 78.871094 213.695312 78.421875 214.144531 C 77.972656 214.59375 77.503906 215.023438 77.011719 215.425781 C 76.519531 215.828125 76.011719 216.207031 75.484375 216.558594 C 74.953125 216.910156 74.410156 217.238281 73.851562 217.539062 C 73.289062 217.835938 72.71875 218.109375 72.128906 218.351562 C 71.542969 218.59375 70.945312 218.808594 70.339844 218.992188 C 69.730469 219.175781 69.117188 219.332031 68.492188 219.453125 C 67.871094 219.578125 67.242188 219.671875 66.609375 219.734375 C 65.976562 219.796875 65.34375 219.828125 64.710938 219.828125 C 64.074219 219.828125 63.441406 219.796875 62.808594 219.734375 C 62.175781 219.671875 61.550781 219.578125 60.925781 219.453125 C 60.304688 219.332031 59.6875 219.175781 59.082031 218.992188 C 58.472656 218.808594 57.875 218.59375 57.289062 218.351562 C 56.703125 218.109375 56.128906 217.835938 55.570312 217.539062 C 55.007812 217.238281 54.464844 216.910156 53.9375 216.558594 C 53.410156 216.207031 52.898438 215.828125 52.40625 215.425781 C 51.917969 215.023438 51.445312 214.59375 51 214.144531 C 50.550781 213.695312 50.125 213.226562 49.71875 212.734375 C 49.316406 212.246094 48.9375 211.734375 48.585938 211.207031 C 48.234375 210.679688 47.90625 210.132812 47.609375 209.574219 C 47.308594 209.015625 47.039062 208.441406 46.792969 207.855469 C 46.550781 207.265625 46.339844 206.667969 46.152344 206.0625 C 45.96875 205.453125 45.816406 204.839844 45.691406 204.214844 C 45.566406 203.59375 45.472656 202.964844 45.410156 202.332031 C 45.351562 201.699219 45.320312 201.066406 45.320312 200.429688 C 45.320312 199.796875 45.351562 199.164062 45.414062 198.53125 C 45.476562 197.898438 45.570312 197.269531 45.695312 196.648438 C 45.820312 196.027344 45.972656 195.410156 46.160156 194.804688 C 46.34375 194.195312 46.558594 193.597656 46.800781 193.011719 C 47.042969 192.425781 47.316406 191.851562 47.613281 191.292969 C 47.914062 190.730469 48.242188 190.1875 48.59375 189.660156 C 48.945312 189.132812 49.324219 188.621094 49.726562 188.132812 C 50.128906 187.640625 50.554688 187.171875 51.003906 186.722656 C 51.453125 186.273438 51.921875 185.847656 52.414062 185.445312 C 52.90625 185.042969 53.414062 184.664062 53.941406 184.308594 C 54.46875 183.957031 55.011719 183.632812 55.574219 183.332031 C 56.132812 183.03125 56.707031 182.761719 57.292969 182.515625 C 57.878906 182.273438 58.476562 182.058594 59.082031 181.875 C 59.691406 181.691406 60.304688 181.535156 60.929688 181.410156 C 61.550781 181.285156 62.179688 181.191406 62.808594 181.128906 C 63.441406 181.066406 64.074219 181.035156 64.710938 181.035156 Z M 64.710938 181.035156 " fill-opacity="1" fill-rule="nonzero"/><path fill="#000000" d="M 91.9375 308.941406 C 92.996094 308.941406 94.050781 308.886719 95.105469 308.785156 C 96.160156 308.679688 97.203125 308.527344 98.242188 308.320312 C 99.28125 308.113281 100.308594 307.855469 101.320312 307.546875 C 102.332031 307.242188 103.328125 306.882812 104.304688 306.480469 C 105.285156 306.074219 106.238281 305.621094 107.171875 305.121094 C 108.105469 304.625 109.011719 304.082031 109.894531 303.492188 C 110.773438 302.902344 111.621094 302.273438 112.441406 301.601562 C 113.257812 300.929688 114.042969 300.21875 114.789062 299.472656 C 115.539062 298.722656 116.25 297.9375 116.921875 297.121094 C 117.59375 296.300781 118.222656 295.453125 118.808594 294.574219 C 119.398438 293.691406 119.941406 292.785156 120.441406 291.851562 C 120.9375 290.917969 121.390625 289.960938 121.796875 288.984375 C 122.203125 288.003906 122.558594 287.011719 122.863281 285.996094 C 123.171875 284.984375 123.429688 283.957031 123.636719 282.917969 C 123.84375 281.882812 123.996094 280.835938 124.101562 279.78125 C 124.203125 278.726562 124.257812 277.671875 124.257812 276.613281 C 124.257812 275.554688 124.203125 274.496094 124.101562 273.445312 C 123.996094 272.390625 123.84375 271.34375 123.636719 270.304688 C 123.429688 269.265625 123.171875 268.242188 122.863281 267.226562 C 122.558594 266.214844 122.203125 265.21875 121.796875 264.242188 C 121.390625 263.261719 120.9375 262.308594 120.441406 261.375 C 119.941406 260.441406 119.398438 259.53125 118.808594 258.652344 C 118.222656 257.773438 117.59375 256.921875 116.921875 256.105469 C 116.25 255.285156 115.539062 254.503906 114.789062 253.753906 C 114.042969 253.003906 113.257812 252.292969 112.441406 251.621094 C 111.621094 250.953125 110.773438 250.320312 109.894531 249.734375 C 109.011719 249.144531 108.105469 248.601562 107.171875 248.101562 C 106.238281 247.601562 105.285156 247.152344 104.304688 246.746094 C 103.328125 246.339844 102.332031 245.984375 101.320312 245.675781 C 100.308594 245.371094 99.28125 245.113281 98.242188 244.90625 C 97.203125 244.699219 96.160156 244.542969 95.105469 244.441406 C 94.050781 244.335938 92.996094 244.285156 91.9375 244.285156 C 90.878906 244.285156 89.824219 244.335938 88.769531 244.441406 C 87.71875 244.542969 86.671875 244.699219 85.632812 244.90625 C 84.59375 245.113281 83.570312 245.371094 82.554688 245.675781 C 81.542969 245.984375 80.546875 246.339844 79.570312 246.746094 C 78.59375 247.152344 77.636719 247.601562 76.703125 248.101562 C 75.769531 248.601562 74.863281 249.144531 73.984375 249.734375 C 73.101562 250.320312 72.253906 250.953125 71.433594 251.621094 C 70.617188 252.292969 69.832031 253.003906 69.085938 253.753906 C 68.335938 254.503906 67.628906 255.285156 66.957031 256.105469 C 66.285156 256.921875 65.652344 257.773438 65.066406 258.652344 C 64.476562 259.53125 63.933594 260.441406 63.4375 261.375 C 62.9375 262.308594 62.484375 263.261719 62.078125 264.242188 C 61.675781 265.21875 61.320312 266.214844 61.011719 267.226562 C 60.703125 268.242188 60.445312 269.265625 60.242188 270.304688 C 60.035156 271.34375 59.878906 272.390625 59.773438 273.445312 C 59.671875 274.496094 59.621094 275.554688 59.621094 276.613281 C 59.621094 277.671875 59.671875 278.726562 59.777344 279.78125 C 59.882812 280.832031 60.039062 281.878906 60.246094 282.917969 C 60.453125 283.953125 60.710938 284.980469 61.019531 285.992188 C 61.328125 287.003906 61.683594 288 62.089844 288.976562 C 62.496094 289.957031 62.945312 290.910156 63.445312 291.84375 C 63.945312 292.777344 64.488281 293.683594 65.078125 294.5625 C 65.664062 295.445312 66.296875 296.292969 66.964844 297.109375 C 67.636719 297.929688 68.347656 298.710938 69.097656 299.460938 C 69.84375 300.210938 70.628906 300.917969 71.445312 301.589844 C 72.261719 302.261719 73.113281 302.890625 73.992188 303.480469 C 74.871094 304.070312 75.777344 304.613281 76.710938 305.113281 C 77.644531 305.613281 78.597656 306.0625 79.574219 306.46875 C 80.554688 306.875 81.546875 307.230469 82.5625 307.539062 C 83.574219 307.847656 84.597656 308.105469 85.636719 308.3125 C 86.671875 308.519531 87.71875 308.675781 88.769531 308.78125 C 89.824219 308.886719 90.878906 308.9375 91.9375 308.941406 Z M 91.9375 257.214844 C 92.574219 257.214844 93.207031 257.246094 93.839844 257.308594 C 94.472656 257.371094 95.097656 257.464844 95.722656 257.589844 C 96.34375 257.710938 96.960938 257.867188 97.566406 258.050781 C 98.175781 258.234375 98.773438 258.449219 99.359375 258.691406 C 99.945312 258.9375 100.519531 259.207031 101.078125 259.507812 C 101.640625 259.804688 102.183594 260.132812 102.710938 260.484375 C 103.238281 260.835938 103.75 261.214844 104.238281 261.617188 C 104.730469 262.023438 105.199219 262.449219 105.648438 262.898438 C 106.097656 263.347656 106.523438 263.816406 106.925781 264.308594 C 107.332031 264.796875 107.707031 265.308594 108.0625 265.835938 C 108.414062 266.363281 108.738281 266.910156 109.039062 267.46875 C 109.339844 268.03125 109.609375 268.601562 109.851562 269.191406 C 110.097656 269.777344 110.308594 270.375 110.496094 270.980469 C 110.679688 271.589844 110.832031 272.207031 110.957031 272.828125 C 111.082031 273.453125 111.171875 274.078125 111.234375 274.710938 C 111.296875 275.34375 111.328125 275.976562 111.328125 276.613281 C 111.328125 277.246094 111.296875 277.882812 111.234375 278.515625 C 111.171875 279.144531 111.082031 279.773438 110.957031 280.398438 C 110.832031 281.019531 110.679688 281.636719 110.496094 282.242188 C 110.308594 282.851562 110.097656 283.449219 109.851562 284.035156 C 109.609375 284.621094 109.339844 285.195312 109.039062 285.757812 C 108.738281 286.316406 108.414062 286.859375 108.0625 287.390625 C 107.707031 287.917969 107.332031 288.425781 106.925781 288.917969 C 106.523438 289.410156 106.097656 289.878906 105.648438 290.328125 C 105.199219 290.777344 104.730469 291.203125 104.238281 291.605469 C 103.75 292.007812 103.238281 292.386719 102.710938 292.738281 C 102.183594 293.09375 101.640625 293.417969 101.078125 293.71875 C 100.519531 294.019531 99.945312 294.289062 99.359375 294.53125 C 98.773438 294.777344 98.175781 294.988281 97.566406 295.175781 C 96.960938 295.359375 96.34375 295.511719 95.722656 295.636719 C 95.097656 295.761719 94.472656 295.855469 93.839844 295.914062 C 93.207031 295.976562 92.574219 296.007812 91.9375 296.007812 C 91.304688 296.007812 90.667969 295.976562 90.039062 295.914062 C 89.40625 295.855469 88.777344 295.761719 88.15625 295.636719 C 87.53125 295.511719 86.917969 295.359375 86.308594 295.175781 C 85.703125 294.988281 85.105469 294.777344 84.515625 294.53125 C 83.929688 294.289062 83.355469 294.019531 82.796875 293.71875 C 82.238281 293.417969 81.691406 293.09375 81.164062 292.738281 C 80.636719 292.386719 80.128906 292.007812 79.636719 291.605469 C 79.144531 291.203125 78.675781 290.777344 78.226562 290.328125 C 77.777344 289.878906 77.351562 289.410156 76.949219 288.917969 C 76.546875 288.425781 76.167969 287.917969 75.816406 287.390625 C 75.460938 286.859375 75.136719 286.316406 74.835938 285.757812 C 74.539062 285.195312 74.265625 284.621094 74.023438 284.035156 C 73.78125 283.449219 73.566406 282.851562 73.382812 282.242188 C 73.199219 281.636719 73.042969 281.019531 72.917969 280.398438 C 72.796875 279.773438 72.703125 279.144531 72.640625 278.515625 C 72.578125 277.882812 72.546875 277.246094 72.546875 276.613281 C 72.546875 275.976562 72.578125 275.34375 72.640625 274.710938 C 72.707031 274.082031 72.796875 273.453125 72.921875 272.828125 C 73.046875 272.207031 73.203125 271.59375 73.386719 270.984375 C 73.570312 270.375 73.785156 269.78125 74.027344 269.191406 C 74.273438 268.605469 74.542969 268.035156 74.84375 267.472656 C 75.144531 266.914062 75.46875 266.371094 75.820312 265.839844 C 76.175781 265.3125 76.550781 264.804688 76.957031 264.3125 C 77.359375 263.824219 77.785156 263.351562 78.234375 262.902344 C 78.683594 262.453125 79.152344 262.027344 79.640625 261.625 C 80.132812 261.222656 80.640625 260.84375 81.171875 260.492188 C 81.699219 260.136719 82.242188 259.8125 82.800781 259.511719 C 83.359375 259.214844 83.933594 258.941406 84.519531 258.699219 C 85.105469 258.453125 85.703125 258.242188 86.3125 258.054688 C 86.917969 257.871094 87.535156 257.714844 88.15625 257.59375 C 88.777344 257.46875 89.40625 257.375 90.039062 257.3125 C 90.667969 257.25 91.304688 257.214844 91.9375 257.214844 Z M 91.9375 257.214844 " fill-opacity="1" fill-rule="nonzero"/><path fill="#000000" d="M 163.558594 279.726562 C 162.5 279.726562 161.441406 279.777344 160.390625 279.882812 C 159.335938 279.984375 158.289062 280.140625 157.253906 280.347656 C 156.214844 280.554688 155.1875 280.808594 154.175781 281.117188 C 153.164062 281.425781 152.167969 281.78125 151.191406 282.1875 C 150.210938 282.589844 149.257812 283.042969 148.324219 283.542969 C 147.390625 284.042969 146.484375 284.585938 145.601562 285.175781 C 144.722656 285.761719 143.875 286.390625 143.054688 287.0625 C 142.238281 287.734375 141.453125 288.445312 140.703125 289.195312 C 139.957031 289.941406 139.246094 290.726562 138.574219 291.542969 C 137.902344 292.363281 137.273438 293.210938 136.6875 294.09375 C 136.097656 294.972656 135.554688 295.878906 135.054688 296.8125 C 134.554688 297.746094 134.105469 298.703125 133.699219 299.683594 C 133.292969 300.660156 132.9375 301.65625 132.628906 302.667969 C 132.324219 303.683594 132.066406 304.707031 131.859375 305.746094 C 131.652344 306.785156 131.5 307.832031 131.394531 308.882812 C 131.289062 309.9375 131.238281 310.996094 131.238281 312.054688 C 131.238281 313.113281 131.289062 314.167969 131.394531 315.222656 C 131.5 316.277344 131.652344 317.320312 131.859375 318.359375 C 132.066406 319.398438 132.324219 320.425781 132.628906 321.4375 C 132.9375 322.449219 133.292969 323.445312 133.699219 324.425781 C 134.105469 325.402344 134.554688 326.359375 135.054688 327.292969 C 135.554688 328.226562 136.097656 329.132812 136.6875 330.011719 C 137.273438 330.894531 137.902344 331.742188 138.574219 332.5625 C 139.246094 333.378906 139.957031 334.164062 140.703125 334.914062 C 141.453125 335.660156 142.238281 336.371094 143.054688 337.042969 C 143.875 337.714844 144.722656 338.34375 145.601562 338.933594 C 146.484375 339.519531 147.390625 340.066406 148.324219 340.5625 C 149.257812 341.0625 150.210938 341.515625 151.191406 341.921875 C 152.167969 342.324219 153.164062 342.679688 154.175781 342.988281 C 155.1875 343.296875 156.214844 343.554688 157.253906 343.757812 C 158.289062 343.964844 159.335938 344.121094 160.390625 344.226562 C 161.441406 344.328125 162.5 344.382812 163.558594 344.382812 C 164.617188 344.382812 165.671875 344.328125 166.726562 344.226562 C 167.777344 344.121094 168.824219 343.964844 169.863281 343.757812 C 170.902344 343.554688 171.925781 343.296875 172.9375 342.988281 C 173.953125 342.679688 174.949219 342.324219 175.925781 341.921875 C 176.902344 341.515625 177.859375 341.0625 178.792969 340.5625 C 179.726562 340.066406 180.632812 339.519531 181.511719 338.933594 C 182.394531 338.34375 183.242188 337.714844 184.058594 337.042969 C 184.878906 336.371094 185.660156 335.660156 186.410156 334.914062 C 187.160156 334.164062 187.867188 333.378906 188.539062 332.5625 C 189.210938 331.742188 189.839844 330.894531 190.429688 330.011719 C 191.015625 329.132812 191.5625 328.226562 192.058594 327.292969 C 192.558594 326.359375 193.011719 325.402344 193.414062 324.425781 C 193.820312 323.445312 194.175781 322.449219 194.484375 321.4375 C 194.792969 320.425781 195.046875 319.398438 195.253906 318.359375 C 195.460938 317.320312 195.617188 316.277344 195.71875 315.222656 C 195.824219 314.167969 195.875 313.113281 195.875 312.054688 C 195.875 310.996094 195.820312 309.9375 195.71875 308.886719 C 195.613281 307.832031 195.457031 306.785156 195.25 305.75 C 195.042969 304.710938 194.785156 303.6875 194.476562 302.671875 C 194.167969 301.660156 193.8125 300.664062 193.40625 299.6875 C 193 298.710938 192.546875 297.753906 192.050781 296.820312 C 191.550781 295.886719 191.007812 294.980469 190.417969 294.101562 C 189.832031 293.222656 189.199219 292.371094 188.527344 291.554688 C 187.859375 290.738281 187.148438 289.953125 186.398438 289.203125 C 185.652344 288.457031 184.867188 287.746094 184.050781 287.074219 C 183.234375 286.402344 182.382812 285.773438 181.503906 285.183594 C 180.625 284.597656 179.71875 284.054688 178.785156 283.554688 C 177.851562 283.054688 176.898438 282.601562 175.917969 282.195312 C 174.941406 281.789062 173.949219 281.433594 172.933594 281.125 C 171.921875 280.816406 170.898438 280.558594 169.859375 280.351562 C 168.824219 280.144531 167.777344 279.988281 166.722656 279.882812 C 165.671875 279.78125 164.617188 279.726562 163.558594 279.726562 Z M 163.558594 331.449219 C 162.921875 331.449219 162.289062 331.417969 161.65625 331.355469 C 161.023438 331.292969 160.398438 331.199219 159.773438 331.078125 C 159.152344 330.953125 158.535156 330.800781 157.929688 330.613281 C 157.320312 330.429688 156.722656 330.214844 156.136719 329.972656 C 155.550781 329.730469 154.976562 329.457031 154.417969 329.160156 C 153.855469 328.859375 153.3125 328.535156 152.785156 328.179688 C 152.257812 327.828125 151.746094 327.449219 151.257812 327.046875 C 150.765625 326.644531 150.296875 326.21875 149.847656 325.769531 C 149.398438 325.320312 148.972656 324.847656 148.566406 324.359375 C 148.164062 323.867188 147.789062 323.359375 147.433594 322.828125 C 147.082031 322.300781 146.753906 321.757812 146.457031 321.195312 C 146.15625 320.636719 145.886719 320.0625 145.640625 319.476562 C 145.398438 318.890625 145.1875 318.292969 145 317.683594 C 144.816406 317.074219 144.664062 316.460938 144.539062 315.835938 C 144.414062 315.214844 144.320312 314.585938 144.261719 313.953125 C 144.199219 313.324219 144.167969 312.6875 144.167969 312.054688 C 144.167969 311.417969 144.199219 310.785156 144.261719 310.152344 C 144.320312 309.519531 144.414062 308.890625 144.539062 308.269531 C 144.664062 307.644531 144.816406 307.03125 145 306.421875 C 145.1875 305.816406 145.398438 305.21875 145.640625 304.628906 C 145.886719 304.042969 146.15625 303.46875 146.457031 302.910156 C 146.753906 302.351562 147.082031 301.804688 147.433594 301.277344 C 147.789062 300.75 148.164062 300.238281 148.566406 299.75 C 148.972656 299.257812 149.398438 298.785156 149.847656 298.335938 C 150.296875 297.890625 150.765625 297.460938 151.257812 297.058594 C 151.746094 296.65625 152.257812 296.277344 152.785156 295.925781 C 153.3125 295.574219 153.855469 295.246094 154.417969 294.945312 C 154.976562 294.648438 155.550781 294.375 156.136719 294.132812 C 156.722656 293.890625 157.320312 293.675781 157.929688 293.492188 C 158.535156 293.308594 159.152344 293.152344 159.773438 293.03125 C 160.398438 292.90625 161.023438 292.8125 161.65625 292.75 C 162.289062 292.6875 162.921875 292.65625 163.558594 292.65625 C 164.191406 292.65625 164.828125 292.6875 165.457031 292.75 C 166.089844 292.8125 166.71875 292.90625 167.339844 293.03125 C 167.964844 293.152344 168.578125 293.308594 169.1875 293.492188 C 169.792969 293.675781 170.390625 293.890625 170.976562 294.132812 C 171.566406 294.375 172.136719 294.648438 172.699219 294.945312 C 173.257812 295.246094 173.800781 295.574219 174.332031 295.925781 C 174.859375 296.277344 175.367188 296.65625 175.859375 297.058594 C 176.351562 297.460938 176.820312 297.890625 177.269531 298.335938 C 177.71875 298.785156 178.144531 299.257812 178.546875 299.75 C 178.949219 300.238281 179.328125 300.75 179.679688 301.277344 C 180.035156 301.804688 180.359375 302.347656 180.660156 302.910156 C 180.957031 303.46875 181.230469 304.042969 181.472656 304.628906 C 181.714844 305.21875 181.929688 305.816406 182.113281 306.421875 C 182.296875 307.03125 182.453125 307.644531 182.574219 308.269531 C 182.699219 308.890625 182.792969 309.519531 182.855469 310.152344 C 182.917969 310.785156 182.949219 311.417969 182.949219 312.054688 C 182.949219 312.6875 182.917969 313.320312 182.851562 313.953125 C 182.789062 314.585938 182.695312 315.214844 182.574219 315.835938 C 182.449219 316.457031 182.292969 317.074219 182.109375 317.679688 C 181.925781 318.289062 181.710938 318.886719 181.46875 319.472656 C 181.222656 320.058594 180.953125 320.632812 180.652344 321.191406 C 180.351562 321.753906 180.027344 322.296875 179.675781 322.824219 C 179.320312 323.351562 178.941406 323.863281 178.539062 324.351562 C 178.136719 324.84375 177.710938 325.3125 177.261719 325.761719 C 176.8125 326.210938 176.34375 326.636719 175.851562 327.039062 C 175.363281 327.441406 174.851562 327.820312 174.324219 328.175781 C 173.796875 328.527344 173.253906 328.855469 172.695312 329.152344 C 172.132812 329.453125 171.5625 329.722656 170.976562 329.96875 C 170.386719 330.210938 169.792969 330.425781 169.183594 330.609375 C 168.578125 330.792969 167.960938 330.949219 167.339844 331.074219 C 166.714844 331.199219 166.089844 331.292969 165.457031 331.355469 C 164.824219 331.417969 164.191406 331.449219 163.558594 331.449219 Z M 163.558594 331.449219 " fill-opacity="1" fill-rule="nonzero"/><path fill="#000000" d="M 245.695312 258.621094 C 244.636719 258.621094 243.578125 258.671875 242.527344 258.777344 C 241.472656 258.878906 240.425781 259.035156 239.386719 259.242188 C 238.351562 259.449219 237.324219 259.707031 236.3125 260.011719 C 235.300781 260.320312 234.304688 260.675781 233.324219 261.082031 C 232.347656 261.488281 231.390625 261.9375 230.457031 262.4375 C 229.523438 262.9375 228.617188 263.480469 227.738281 264.070312 C 226.859375 264.65625 226.007812 265.285156 225.191406 265.957031 C 224.371094 266.628906 223.589844 267.339844 222.839844 268.089844 C 222.09375 268.835938 221.382812 269.621094 220.710938 270.441406 C 220.039062 271.257812 219.410156 272.109375 218.820312 272.988281 C 218.234375 273.867188 217.691406 274.773438 217.191406 275.710938 C 216.691406 276.644531 216.238281 277.597656 215.835938 278.578125 C 215.429688 279.554688 215.074219 280.550781 214.765625 281.5625 C 214.460938 282.578125 214.203125 283.601562 213.996094 284.640625 C 213.789062 285.679688 213.632812 286.726562 213.53125 287.78125 C 213.425781 288.832031 213.375 289.890625 213.375 290.949219 C 213.375 292.007812 213.425781 293.0625 213.53125 294.117188 C 213.632812 295.171875 213.789062 296.214844 213.996094 297.253906 C 214.203125 298.292969 214.460938 299.320312 214.765625 300.332031 C 215.074219 301.34375 215.429688 302.339844 215.835938 303.320312 C 216.238281 304.296875 216.691406 305.253906 217.191406 306.1875 C 217.691406 307.121094 218.234375 308.027344 218.820312 308.910156 C 219.410156 309.789062 220.039062 310.636719 220.710938 311.457031 C 221.382812 312.273438 222.09375 313.058594 222.839844 313.808594 C 223.589844 314.554688 224.371094 315.265625 225.191406 315.9375 C 226.007812 316.609375 226.859375 317.238281 227.738281 317.828125 C 228.617188 318.414062 229.523438 318.960938 230.457031 319.457031 C 231.390625 319.957031 232.347656 320.410156 233.324219 320.816406 C 234.304688 321.21875 235.300781 321.578125 236.3125 321.882812 C 237.324219 322.191406 238.351562 322.449219 239.386719 322.65625 C 240.425781 322.859375 241.472656 323.015625 242.527344 323.121094 C 243.578125 323.222656 244.636719 323.277344 245.695312 323.277344 C 246.753906 323.277344 247.808594 323.222656 248.859375 323.121094 C 249.914062 323.015625 250.960938 322.859375 252 322.65625 C 253.035156 322.449219 254.0625 322.191406 255.074219 321.882812 C 256.089844 321.578125 257.082031 321.21875 258.0625 320.816406 C 259.039062 320.410156 259.996094 319.957031 260.929688 319.457031 C 261.863281 318.960938 262.769531 318.414062 263.648438 317.828125 C 264.527344 317.238281 265.378906 316.609375 266.195312 315.9375 C 267.015625 315.265625 267.796875 314.554688 268.546875 313.808594 C 269.292969 313.058594 270.003906 312.273438 270.675781 311.457031 C 271.347656 310.636719 271.976562 309.789062 272.566406 308.910156 C 273.152344 308.027344 273.695312 307.121094 274.195312 306.1875 C 274.695312 305.253906 275.148438 304.296875 275.550781 303.320312 C 275.957031 302.339844 276.3125 301.34375 276.621094 300.332031 C 276.925781 299.320312 277.183594 298.292969 277.390625 297.253906 C 277.597656 296.214844 277.753906 295.171875 277.855469 294.117188 C 277.960938 293.0625 278.011719 292.007812 278.011719 290.949219 C 278.011719 289.890625 277.957031 288.832031 277.851562 287.78125 C 277.75 286.726562 277.59375 285.683594 277.386719 284.644531 C 277.179688 283.605469 276.921875 282.582031 276.613281 281.566406 C 276.304688 280.554688 275.949219 279.558594 275.542969 278.582031 C 275.136719 277.605469 274.683594 276.648438 274.183594 275.714844 C 273.6875 274.78125 273.140625 273.875 272.554688 272.996094 C 271.964844 272.117188 271.335938 271.269531 270.664062 270.449219 C 269.992188 269.632812 269.285156 268.847656 268.535156 268.101562 C 267.789062 267.351562 267.003906 266.640625 266.1875 265.96875 C 265.367188 265.296875 264.519531 264.667969 263.640625 264.078125 C 262.761719 263.492188 261.855469 262.949219 260.921875 262.449219 C 259.988281 261.949219 259.03125 261.496094 258.054688 261.089844 C 257.078125 260.6875 256.082031 260.328125 255.070312 260.019531 C 254.058594 259.710938 253.035156 259.457031 251.996094 259.246094 C 250.957031 259.039062 249.914062 258.882812 248.859375 258.78125 C 247.808594 258.675781 246.75 258.621094 245.695312 258.621094 Z M 245.695312 310.34375 C 245.058594 310.34375 244.425781 310.3125 243.792969 310.25 C 243.160156 310.1875 242.535156 310.097656 241.910156 309.972656 C 241.289062 309.847656 240.671875 309.695312 240.066406 309.507812 C 239.457031 309.324219 238.859375 309.113281 238.273438 308.867188 C 237.6875 308.625 237.113281 308.355469 236.550781 308.054688 C 235.992188 307.753906 235.449219 307.429688 234.921875 307.074219 C 234.390625 306.722656 233.882812 306.34375 233.390625 305.941406 C 232.902344 305.539062 232.429688 305.113281 231.980469 304.664062 C 231.53125 304.214844 231.105469 303.746094 230.703125 303.253906 C 230.300781 302.761719 229.921875 302.253906 229.570312 301.722656 C 229.21875 301.195312 228.890625 300.652344 228.59375 300.089844 C 228.292969 299.53125 228.019531 298.957031 227.777344 298.371094 C 227.535156 297.785156 227.320312 297.1875 227.136719 296.578125 C 226.953125 295.972656 226.800781 295.355469 226.675781 294.730469 C 226.550781 294.109375 226.457031 293.480469 226.394531 292.847656 C 226.332031 292.21875 226.300781 291.582031 226.300781 290.949219 C 226.300781 290.3125 226.332031 289.679688 226.394531 289.046875 C 226.457031 288.414062 226.550781 287.789062 226.675781 287.164062 C 226.800781 286.542969 226.953125 285.925781 227.136719 285.316406 C 227.320312 284.710938 227.535156 284.113281 227.777344 283.527344 C 228.019531 282.9375 228.292969 282.363281 228.59375 281.804688 C 228.890625 281.246094 229.21875 280.699219 229.570312 280.171875 C 229.921875 279.644531 230.300781 279.132812 230.703125 278.644531 C 231.105469 278.152344 231.53125 277.683594 231.980469 277.234375 C 232.429688 276.785156 232.902344 276.359375 233.390625 275.953125 C 233.882812 275.550781 234.390625 275.171875 234.921875 274.820312 C 235.449219 274.46875 235.992188 274.140625 236.550781 273.84375 C 237.113281 273.542969 237.6875 273.269531 238.273438 273.027344 C 238.859375 272.785156 239.457031 272.570312 240.066406 272.386719 C 240.671875 272.203125 241.289062 272.046875 241.910156 271.925781 C 242.535156 271.800781 243.160156 271.707031 243.792969 271.644531 C 244.425781 271.582031 245.058594 271.550781 245.695312 271.550781 C 246.328125 271.550781 246.960938 271.582031 247.59375 271.644531 C 248.226562 271.707031 248.855469 271.800781 249.476562 271.925781 C 250.097656 272.046875 250.714844 272.203125 251.324219 272.386719 C 251.929688 272.570312 252.527344 272.785156 253.113281 273.027344 C 253.699219 273.269531 254.273438 273.542969 254.835938 273.84375 C 255.394531 274.140625 255.9375 274.46875 256.464844 274.820312 C 256.996094 275.171875 257.503906 275.550781 257.996094 275.953125 C 258.484375 276.359375 258.957031 276.785156 259.40625 277.234375 C 259.855469 277.683594 260.28125 278.152344 260.683594 278.644531 C 261.085938 279.132812 261.464844 279.644531 261.816406 280.171875 C 262.167969 280.699219 262.496094 281.246094 262.796875 281.804688 C 263.09375 282.363281 263.367188 282.9375 263.609375 283.527344 C 263.851562 284.113281 264.066406 284.710938 264.25 285.316406 C 264.433594 285.925781 264.589844 286.542969 264.710938 287.164062 C 264.835938 287.789062 264.929688 288.414062 264.992188 289.046875 C 265.054688 289.679688 265.085938 290.3125 265.085938 290.949219 C 265.082031 291.582031 265.050781 292.21875 264.988281 292.847656 C 264.925781 293.480469 264.832031 294.109375 264.707031 294.730469 C 264.582031 295.355469 264.429688 295.96875 264.246094 296.578125 C 264.058594 297.183594 263.847656 297.78125 263.601562 298.367188 C 263.359375 298.953125 263.085938 299.527344 262.789062 300.085938 C 262.488281 300.648438 262.164062 301.191406 261.808594 301.71875 C 261.457031 302.246094 261.078125 302.757812 260.675781 303.246094 C 260.273438 303.738281 259.847656 304.207031 259.398438 304.65625 C 258.949219 305.105469 258.480469 305.53125 257.988281 305.933594 C 257.5 306.339844 256.988281 306.714844 256.460938 307.070312 C 255.933594 307.421875 255.390625 307.75 254.828125 308.046875 C 254.269531 308.347656 253.695312 308.617188 253.109375 308.863281 C 252.523438 309.105469 251.925781 309.320312 251.320312 309.503906 C 250.710938 309.6875 250.097656 309.84375 249.476562 309.96875 C 248.851562 310.09375 248.226562 310.1875 247.59375 310.25 C 246.960938 310.3125 246.328125 310.34375 245.695312 310.34375 Z M 245.695312 310.34375 " fill-opacity="1" fill-rule="nonzero"/><path fill="#000000" d="M 331.875 230.085938 C 331.875 229.027344 331.820312 227.96875 331.71875 226.914062 C 331.613281 225.863281 331.457031 224.816406 331.253906 223.777344 C 331.046875 222.738281 330.789062 221.714844 330.480469 220.699219 C 330.175781 219.6875 329.816406 218.691406 329.414062 217.714844 C 329.007812 216.734375 328.554688 215.777344 328.058594 214.84375 C 327.558594 213.910156 327.015625 213.003906 326.425781 212.125 C 325.839844 211.242188 325.207031 210.394531 324.539062 209.574219 C 323.867188 208.757812 323.15625 207.972656 322.40625 207.226562 C 321.660156 206.476562 320.875 205.765625 320.058594 205.09375 C 319.238281 204.421875 318.390625 203.792969 317.511719 203.203125 C 316.628906 202.617188 315.722656 202.074219 314.789062 201.574219 C 313.855469 201.074219 312.902344 200.621094 311.921875 200.21875 C 310.945312 199.8125 309.949219 199.457031 308.9375 199.148438 C 307.921875 198.839844 306.898438 198.585938 305.859375 198.378906 C 304.820312 198.171875 303.777344 198.015625 302.722656 197.914062 C 301.667969 197.808594 300.613281 197.757812 299.554688 197.757812 C 298.496094 197.757812 297.441406 197.808594 296.386719 197.914062 C 295.332031 198.015625 294.289062 198.171875 293.25 198.378906 C 292.210938 198.585938 291.1875 198.839844 290.171875 199.148438 C 289.160156 199.457031 288.164062 199.8125 287.1875 200.21875 C 286.210938 200.621094 285.253906 201.074219 284.320312 201.574219 C 283.386719 202.074219 282.480469 202.617188 281.597656 203.203125 C 280.71875 203.792969 279.871094 204.421875 279.050781 205.09375 C 278.234375 205.765625 277.449219 206.476562 276.703125 207.226562 C 275.953125 207.972656 275.242188 208.757812 274.570312 209.574219 C 273.902344 210.394531 273.269531 211.242188 272.683594 212.125 C 272.09375 213.003906 271.550781 213.910156 271.050781 214.84375 C 270.554688 215.777344 270.101562 216.734375 269.695312 217.714844 C 269.292969 218.691406 268.933594 219.6875 268.628906 220.699219 C 268.320312 221.714844 268.0625 222.738281 267.855469 223.777344 C 267.652344 224.816406 267.496094 225.863281 267.390625 226.914062 C 267.289062 227.96875 267.234375 229.027344 267.234375 230.085938 C 267.234375 231.144531 267.289062 232.199219 267.390625 233.253906 C 267.496094 234.308594 267.652344 235.351562 267.855469 236.390625 C 268.0625 237.429688 268.320312 238.457031 268.628906 239.46875 C 268.933594 240.480469 269.292969 241.476562 269.695312 242.457031 C 270.101562 243.433594 270.554688 244.390625 271.050781 245.324219 C 271.550781 246.257812 272.09375 247.164062 272.683594 248.042969 C 273.269531 248.925781 273.902344 249.773438 274.570312 250.59375 C 275.242188 251.410156 275.953125 252.195312 276.703125 252.945312 C 277.449219 253.691406 278.234375 254.402344 279.050781 255.074219 C 279.871094 255.746094 280.71875 256.375 281.597656 256.964844 C 282.480469 257.550781 283.386719 258.09375 284.320312 258.59375 C 285.253906 259.09375 286.210938 259.546875 287.1875 259.949219 C 288.164062 260.355469 289.160156 260.710938 290.171875 261.019531 C 291.1875 261.328125 292.210938 261.585938 293.25 261.789062 C 294.289062 261.996094 295.332031 262.152344 296.386719 262.257812 C 297.441406 262.359375 298.496094 262.410156 299.554688 262.410156 C 300.613281 262.410156 301.667969 262.359375 302.722656 262.253906 C 303.773438 262.148438 304.820312 261.992188 305.855469 261.785156 C 306.894531 261.578125 307.917969 261.320312 308.933594 261.011719 C 309.945312 260.703125 310.941406 260.347656 311.917969 259.941406 C 312.894531 259.535156 313.847656 259.082031 314.78125 258.585938 C 315.714844 258.085938 316.621094 257.539062 317.5 256.953125 C 318.382812 256.363281 319.230469 255.734375 320.046875 255.0625 C 320.867188 254.390625 321.648438 253.679688 322.398438 252.933594 C 323.144531 252.183594 323.855469 251.402344 324.527344 250.582031 C 325.199219 249.765625 325.828125 248.914062 326.414062 248.035156 C 327.003906 247.15625 327.546875 246.25 328.046875 245.316406 C 328.546875 244.382812 328.996094 243.425781 329.402344 242.449219 C 329.808594 241.472656 330.164062 240.476562 330.472656 239.464844 C 330.78125 238.453125 331.039062 237.425781 331.246094 236.386719 C 331.453125 235.351562 331.609375 234.304688 331.714844 233.25 C 331.820312 232.199219 331.871094 231.144531 331.875 230.085938 Z M 280.164062 230.085938 C 280.164062 229.449219 280.195312 228.816406 280.257812 228.183594 C 280.320312 227.550781 280.414062 226.921875 280.535156 226.300781 C 280.660156 225.675781 280.8125 225.0625 281 224.453125 C 281.183594 223.847656 281.398438 223.25 281.640625 222.660156 C 281.882812 222.074219 282.152344 221.5 282.453125 220.941406 C 282.753906 220.378906 283.078125 219.835938 283.429688 219.308594 C 283.785156 218.78125 284.164062 218.269531 284.566406 217.78125 C 284.96875 217.289062 285.394531 216.816406 285.84375 216.367188 C 286.292969 215.917969 286.761719 215.492188 287.253906 215.089844 C 287.742188 214.6875 288.253906 214.308594 288.78125 213.957031 C 289.308594 213.605469 289.855469 213.277344 290.414062 212.976562 C 290.972656 212.679688 291.546875 212.40625 292.132812 212.164062 C 292.722656 211.921875 293.316406 211.707031 293.925781 211.523438 C 294.535156 211.339844 295.148438 211.183594 295.773438 211.058594 C 296.394531 210.9375 297.023438 210.84375 297.652344 210.78125 C 298.285156 210.71875 298.917969 210.6875 299.554688 210.6875 C 300.191406 210.6875 300.824219 210.71875 301.457031 210.78125 C 302.085938 210.84375 302.714844 210.9375 303.335938 211.058594 C 303.960938 211.183594 304.574219 211.339844 305.183594 211.523438 C 305.792969 211.707031 306.386719 211.921875 306.976562 212.164062 C 307.5625 212.40625 308.136719 212.679688 308.695312 212.976562 C 309.253906 213.277344 309.800781 213.605469 310.328125 213.957031 C 310.855469 214.308594 311.367188 214.6875 311.855469 215.089844 C 312.347656 215.492188 312.816406 215.917969 313.265625 216.367188 C 313.714844 216.816406 314.140625 217.289062 314.542969 217.78125 C 314.945312 218.269531 315.324219 218.78125 315.679688 219.308594 C 316.03125 219.835938 316.355469 220.378906 316.65625 220.941406 C 316.957031 221.5 317.226562 222.074219 317.46875 222.660156 C 317.710938 223.25 317.925781 223.847656 318.109375 224.453125 C 318.296875 225.0625 318.449219 225.675781 318.574219 226.300781 C 318.695312 226.921875 318.789062 227.550781 318.851562 228.183594 C 318.914062 228.816406 318.945312 229.449219 318.945312 230.085938 C 318.945312 230.71875 318.914062 231.351562 318.851562 231.984375 C 318.789062 232.617188 318.695312 233.246094 318.574219 233.867188 C 318.449219 234.492188 318.296875 235.105469 318.109375 235.714844 C 317.925781 236.324219 317.710938 236.921875 317.46875 237.507812 C 317.226562 238.09375 316.957031 238.667969 316.65625 239.226562 C 316.355469 239.789062 316.03125 240.332031 315.679688 240.859375 C 315.324219 241.386719 314.945312 241.898438 314.542969 242.390625 C 314.140625 242.878906 313.714844 243.351562 313.265625 243.800781 C 312.816406 244.25 312.347656 244.675781 311.855469 245.078125 C 311.367188 245.480469 310.855469 245.859375 310.328125 246.210938 C 309.800781 246.566406 309.253906 246.890625 308.695312 247.191406 C 308.136719 247.488281 307.5625 247.761719 306.976562 248.003906 C 306.386719 248.246094 305.792969 248.460938 305.183594 248.644531 C 304.574219 248.828125 303.960938 248.984375 303.335938 249.109375 C 302.714844 249.230469 302.085938 249.324219 301.457031 249.386719 C 300.824219 249.449219 300.191406 249.480469 299.554688 249.480469 C 298.917969 249.480469 298.285156 249.449219 297.65625 249.386719 C 297.023438 249.324219 296.394531 249.230469 295.773438 249.105469 C 295.152344 248.980469 294.535156 248.824219 293.929688 248.640625 C 293.320312 248.457031 292.722656 248.242188 292.136719 248 C 291.550781 247.753906 290.976562 247.484375 290.417969 247.183594 C 289.859375 246.882812 289.316406 246.558594 288.785156 246.203125 C 288.257812 245.851562 287.75 245.472656 287.257812 245.070312 C 286.769531 244.667969 286.296875 244.242188 285.851562 243.792969 C 285.402344 243.34375 284.976562 242.875 284.570312 242.382812 C 284.167969 241.890625 283.792969 241.382812 283.4375 240.855469 C 283.085938 240.328125 282.757812 239.785156 282.460938 239.222656 C 282.160156 238.664062 281.890625 238.089844 281.644531 237.503906 C 281.402344 236.917969 281.1875 236.320312 281.003906 235.710938 C 280.820312 235.105469 280.664062 234.488281 280.539062 233.867188 C 280.414062 233.242188 280.320312 232.617188 280.257812 231.984375 C 280.195312 231.351562 280.164062 230.71875 280.164062 230.085938 Z M 280.164062 230.085938 " fill-opacity="1" fill-rule="nonzero"/><path fill="#000000" d="M 109.957031 122.84375 C 109.957031 121.785156 109.902344 120.730469 109.800781 119.675781 C 109.695312 118.621094 109.542969 117.578125 109.335938 116.539062 C 109.128906 115.5 108.871094 114.472656 108.5625 113.460938 C 108.257812 112.449219 107.902344 111.453125 107.496094 110.472656 C 107.089844 109.496094 106.636719 108.539062 106.140625 107.605469 C 105.640625 106.671875 105.097656 105.765625 104.507812 104.882812 C 103.921875 104.003906 103.292969 103.15625 102.621094 102.335938 C 101.949219 101.519531 101.238281 100.734375 100.488281 99.984375 C 99.742188 99.238281 98.957031 98.527344 98.140625 97.855469 C 97.320312 97.183594 96.472656 96.554688 95.59375 95.964844 C 94.710938 95.378906 93.804688 94.832031 92.871094 94.335938 C 91.9375 93.835938 90.984375 93.382812 90.003906 92.976562 C 89.027344 92.574219 88.03125 92.214844 87.019531 91.910156 C 86.003906 91.601562 84.980469 91.34375 83.941406 91.136719 C 82.902344 90.933594 81.859375 90.777344 80.804688 90.671875 C 79.75 90.570312 78.695312 90.515625 77.636719 90.515625 C 76.578125 90.515625 75.523438 90.570312 74.46875 90.671875 C 73.414062 90.777344 72.371094 90.933594 71.332031 91.136719 C 70.292969 91.34375 69.269531 91.601562 68.253906 91.910156 C 67.242188 92.214844 66.246094 92.574219 65.269531 92.976562 C 64.292969 93.382812 63.335938 93.835938 62.402344 94.335938 C 61.46875 94.832031 60.5625 95.378906 59.683594 95.964844 C 58.800781 96.554688 57.953125 97.183594 57.132812 97.855469 C 56.316406 98.527344 55.53125 99.238281 54.785156 99.984375 C 54.035156 100.734375 53.324219 101.519531 52.65625 102.335938 C 51.984375 103.15625 51.351562 104.003906 50.765625 104.882812 C 50.175781 105.765625 49.632812 106.671875 49.132812 107.605469 C 48.636719 108.539062 48.183594 109.496094 47.777344 110.472656 C 47.375 111.453125 47.015625 112.449219 46.710938 113.460938 C 46.402344 114.472656 46.144531 115.5 45.941406 116.539062 C 45.734375 117.578125 45.578125 118.621094 45.472656 119.675781 C 45.371094 120.730469 45.320312 121.785156 45.320312 122.84375 C 45.320312 123.902344 45.371094 124.960938 45.472656 126.011719 C 45.578125 127.066406 45.734375 128.113281 45.941406 129.152344 C 46.144531 130.191406 46.402344 131.214844 46.710938 132.230469 C 47.015625 133.242188 47.375 134.238281 47.777344 135.214844 C 48.183594 136.195312 48.636719 137.148438 49.132812 138.082031 C 49.632812 139.019531 50.175781 139.925781 50.765625 140.804688 C 51.351562 141.683594 51.984375 142.535156 52.65625 143.351562 C 53.324219 144.171875 54.035156 144.957031 54.785156 145.703125 C 55.53125 146.453125 56.316406 147.164062 57.132812 147.835938 C 57.953125 148.507812 58.800781 149.136719 59.683594 149.722656 C 60.5625 150.3125 61.46875 150.855469 62.402344 151.355469 C 63.335938 151.855469 64.292969 152.304688 65.269531 152.710938 C 66.246094 153.117188 67.242188 153.472656 68.253906 153.78125 C 69.269531 154.085938 70.292969 154.34375 71.332031 154.550781 C 72.371094 154.757812 73.414062 154.914062 74.46875 155.015625 C 75.523438 155.121094 76.578125 155.171875 77.636719 155.171875 C 78.695312 155.171875 79.75 155.117188 80.804688 155.011719 C 81.855469 154.910156 82.902344 154.753906 83.941406 154.546875 C 84.976562 154.335938 86.003906 154.082031 87.015625 153.773438 C 88.027344 153.464844 89.023438 153.109375 90 152.703125 C 90.976562 152.296875 91.933594 151.84375 92.863281 151.34375 C 93.796875 150.84375 94.703125 150.300781 95.582031 149.714844 C 96.464844 149.125 97.3125 148.496094 98.128906 147.824219 C 98.949219 147.152344 99.730469 146.441406 100.480469 145.691406 C 101.226562 144.945312 101.9375 144.160156 102.609375 143.34375 C 103.28125 142.523438 103.910156 141.675781 104.496094 140.796875 C 105.085938 139.917969 105.628906 139.011719 106.128906 138.078125 C 106.628906 137.144531 107.082031 136.1875 107.484375 135.210938 C 107.890625 134.234375 108.246094 133.238281 108.554688 132.226562 C 108.863281 131.210938 109.121094 130.1875 109.328125 129.148438 C 109.535156 128.109375 109.691406 127.066406 109.796875 126.011719 C 109.902344 124.960938 109.953125 123.902344 109.957031 122.84375 Z M 58.246094 122.84375 C 58.246094 122.210938 58.277344 121.574219 58.339844 120.945312 C 58.402344 120.3125 58.496094 119.683594 58.617188 119.0625 C 58.742188 118.4375 58.898438 117.820312 59.082031 117.214844 C 59.265625 116.605469 59.480469 116.007812 59.722656 115.421875 C 59.964844 114.835938 60.234375 114.261719 60.535156 113.703125 C 60.835938 113.140625 61.160156 112.597656 61.515625 112.070312 C 61.867188 111.539062 62.246094 111.03125 62.648438 110.539062 C 63.050781 110.046875 63.476562 109.578125 63.925781 109.128906 C 64.375 108.679688 64.84375 108.253906 65.335938 107.851562 C 65.828125 107.449219 66.335938 107.070312 66.863281 106.71875 C 67.390625 106.363281 67.9375 106.039062 68.496094 105.738281 C 69.054688 105.4375 69.628906 105.167969 70.214844 104.925781 C 70.804688 104.679688 71.402344 104.46875 72.007812 104.285156 C 72.617188 104.097656 73.230469 103.945312 73.855469 103.820312 C 74.476562 103.695312 75.105469 103.605469 75.738281 103.542969 C 76.367188 103.480469 77.003906 103.449219 77.636719 103.449219 C 78.273438 103.449219 78.90625 103.480469 79.539062 103.542969 C 80.167969 103.605469 80.796875 103.695312 81.421875 103.820312 C 82.042969 103.945312 82.660156 104.097656 83.265625 104.285156 C 83.875 104.46875 84.472656 104.679688 85.058594 104.925781 C 85.644531 105.167969 86.21875 105.4375 86.777344 105.738281 C 87.339844 106.039062 87.882812 106.363281 88.410156 106.71875 C 88.9375 107.070312 89.449219 107.449219 89.9375 107.851562 C 90.429688 108.253906 90.898438 108.679688 91.347656 109.128906 C 91.796875 109.578125 92.222656 110.046875 92.625 110.539062 C 93.03125 111.03125 93.40625 111.539062 93.761719 112.070312 C 94.113281 112.597656 94.4375 113.140625 94.738281 113.703125 C 95.039062 114.261719 95.308594 114.835938 95.550781 115.421875 C 95.796875 116.007812 96.007812 116.605469 96.191406 117.214844 C 96.378906 117.820312 96.53125 118.4375 96.65625 119.0625 C 96.78125 119.683594 96.871094 120.3125 96.933594 120.945312 C 96.996094 121.574219 97.027344 122.210938 97.027344 122.84375 C 97.027344 123.480469 96.996094 124.113281 96.933594 124.746094 C 96.871094 125.378906 96.78125 126.003906 96.65625 126.628906 C 96.53125 127.25 96.378906 127.867188 96.191406 128.476562 C 96.007812 129.082031 95.796875 129.679688 95.550781 130.265625 C 95.308594 130.855469 95.039062 131.429688 94.738281 131.988281 C 94.4375 132.546875 94.113281 133.09375 93.761719 133.621094 C 93.40625 134.148438 93.03125 134.660156 92.625 135.148438 C 92.222656 135.640625 91.796875 136.109375 91.347656 136.558594 C 90.898438 137.007812 90.429688 137.4375 89.9375 137.839844 C 89.449219 138.242188 88.9375 138.621094 88.410156 138.972656 C 87.882812 139.324219 87.339844 139.652344 86.777344 139.949219 C 86.21875 140.25 85.644531 140.523438 85.058594 140.765625 C 84.472656 141.007812 83.875 141.222656 83.265625 141.40625 C 82.660156 141.589844 82.042969 141.746094 81.421875 141.867188 C 80.796875 141.992188 80.167969 142.085938 79.539062 142.148438 C 78.90625 142.210938 78.273438 142.242188 77.636719 142.242188 C 77.003906 142.242188 76.367188 142.207031 75.738281 142.144531 C 75.105469 142.082031 74.476562 141.988281 73.855469 141.863281 C 73.234375 141.742188 72.617188 141.585938 72.011719 141.402344 C 71.402344 141.214844 70.804688 141.003906 70.21875 140.757812 C 69.632812 140.515625 69.058594 140.242188 68.5 139.945312 C 67.941406 139.644531 67.398438 139.320312 66.871094 138.964844 C 66.339844 138.613281 65.832031 138.234375 65.339844 137.832031 C 64.851562 137.429688 64.382812 137.003906 63.933594 136.554688 C 63.484375 136.105469 63.058594 135.632812 62.65625 135.144531 C 62.25 134.652344 61.875 134.144531 61.519531 133.617188 C 61.167969 133.085938 60.84375 132.542969 60.542969 131.984375 C 60.242188 131.425781 59.972656 130.851562 59.726562 130.265625 C 59.484375 129.675781 59.269531 129.082031 59.085938 128.472656 C 58.902344 127.863281 58.746094 127.25 58.621094 126.628906 C 58.496094 126.003906 58.40625 125.378906 58.339844 124.746094 C 58.277344 124.113281 58.246094 123.480469 58.246094 122.84375 Z M 58.246094 122.84375 " fill-opacity="1" fill-rule="nonzero"/><path fill="#000000" d="M 167.5625 181.453125 C 158.949219 181.65625 150.847656 184.929688 145.332031 190.449219 C 127.46875 208.316406 129.640625 244.21875 129.742188 245.738281 C 129.765625 246.128906 129.828125 246.507812 129.921875 246.886719 C 130.015625 247.261719 130.144531 247.628906 130.304688 247.980469 C 130.464844 248.335938 130.65625 248.671875 130.875 248.992188 C 131.097656 249.308594 131.34375 249.605469 131.617188 249.882812 C 131.894531 250.15625 132.191406 250.402344 132.507812 250.625 C 132.828125 250.847656 133.164062 251.035156 133.519531 251.199219 C 133.871094 251.359375 134.238281 251.484375 134.613281 251.578125 C 134.992188 251.675781 135.371094 251.734375 135.757812 251.761719 C 136.078125 251.78125 137.902344 251.894531 140.75 251.894531 C 151.515625 251.894531 176.910156 250.292969 191.039062 236.164062 C 197.5 229.699219 200.910156 219.261719 199.792969 209.121094 L 369.289062 39.578125 C 369.738281 39.128906 370.167969 38.660156 370.570312 38.167969 C 370.976562 37.675781 371.355469 37.167969 371.710938 36.640625 C 372.066406 36.113281 372.394531 35.566406 372.695312 35.007812 C 372.996094 34.445312 373.269531 33.871094 373.515625 33.285156 C 373.757812 32.695312 373.972656 32.097656 374.160156 31.492188 C 374.347656 30.882812 374.5 30.265625 374.625 29.640625 C 374.753906 29.015625 374.847656 28.390625 374.910156 27.753906 C 374.972656 27.121094 375.003906 26.488281 375.007812 25.851562 C 375.007812 25.214844 374.976562 24.578125 374.914062 23.945312 C 374.851562 23.3125 374.761719 22.683594 374.636719 22.058594 C 374.515625 21.433594 374.359375 20.820312 374.175781 20.210938 C 373.992188 19.601562 373.777344 19 373.535156 18.414062 C 373.292969 17.824219 373.019531 17.25 372.722656 16.6875 C 372.421875 16.128906 372.09375 15.582031 371.742188 15.054688 C 371.386719 14.523438 371.011719 14.011719 370.605469 13.519531 C 370.203125 13.03125 369.777344 12.558594 369.328125 12.109375 C 368.875 11.660156 368.40625 11.230469 367.914062 10.828125 C 367.421875 10.425781 366.910156 10.046875 366.382812 9.691406 C 365.851562 9.339844 365.308594 9.011719 364.746094 8.710938 C 364.183594 8.414062 363.609375 8.140625 363.023438 7.898438 C 362.433594 7.65625 361.835938 7.441406 361.226562 7.257812 C 360.617188 7.074219 360 6.917969 359.378906 6.796875 C 358.753906 6.671875 358.125 6.578125 357.492188 6.519531 C 356.859375 6.457031 356.222656 6.425781 355.585938 6.425781 C 354.953125 6.429688 354.316406 6.460938 353.683594 6.523438 C 353.050781 6.585938 352.421875 6.679688 351.796875 6.804688 C 351.175781 6.933594 350.558594 7.085938 349.949219 7.273438 C 349.339844 7.460938 348.742188 7.675781 348.15625 7.917969 C 347.570312 8.164062 346.996094 8.4375 346.433594 8.738281 C 345.875 9.039062 345.328125 9.367188 344.800781 9.722656 C 344.273438 10.078125 343.765625 10.457031 343.273438 10.863281 C 342.78125 11.269531 342.3125 11.695312 341.863281 12.148438 L 172.390625 181.667969 C 170.785156 181.484375 169.175781 181.414062 167.5625 181.453125 Z M 181.894531 227.019531 C 174.953125 233.964844 163.273438 236.828125 154.699219 238.011719 C 150.660156 238.558594 146.601562 238.867188 142.527344 238.9375 C 142.726562 227.757812 145.054688 209.011719 154.472656 199.589844 C 157.734375 196.328125 163.03125 194.398438 168.433594 194.398438 C 170.933594 194.335938 173.347656 194.753906 175.679688 195.65625 C 178.011719 196.554688 180.085938 197.867188 181.898438 199.589844 C 189.492188 207.1875 188.105469 220.808594 181.894531 227.019531 Z M 351.007812 21.289062 C 351.304688 20.984375 351.632812 20.710938 351.984375 20.46875 C 352.335938 20.230469 352.710938 20.023438 353.105469 19.859375 C 353.5 19.691406 353.902344 19.566406 354.324219 19.480469 C 354.742188 19.390625 355.164062 19.347656 355.59375 19.34375 C 356.019531 19.34375 356.441406 19.382812 356.863281 19.464844 C 357.28125 19.546875 357.691406 19.667969 358.085938 19.832031 C 358.480469 19.992188 358.855469 20.195312 359.210938 20.429688 C 359.566406 20.667969 359.894531 20.9375 360.199219 21.238281 C 360.5 21.542969 360.769531 21.871094 361.007812 22.226562 C 361.242188 22.582031 361.445312 22.957031 361.605469 23.355469 C 361.769531 23.75 361.890625 24.15625 361.972656 24.578125 C 362.054688 24.996094 362.09375 25.421875 362.089844 25.847656 C 362.089844 26.273438 362.042969 26.699219 361.957031 27.117188 C 361.871094 27.535156 361.746094 27.941406 361.578125 28.335938 C 361.410156 28.730469 361.207031 29.101562 360.964844 29.457031 C 360.726562 29.808594 360.453125 30.136719 360.144531 30.433594 L 213.890625 176.730469 L 204.75 167.589844 Z M 195.609375 176.734375 L 204.75 185.875 L 195.101562 195.523438 C 192.738281 191.792969 189.691406 188.746094 185.960938 186.378906 Z M 195.609375 176.734375 " fill-opacity="1" fill-rule="nonzero"/></svg>